<?xml version="1.0" encoding="utf-8" standalone="no"?>
<!DOCTYPE svg PUBLIC "-//W3C//DTD SVG 1.1//EN"
  "http://www.w3.org/Graphics/SVG/1.1/DTD/svg11.dtd">
<svg xmlns:xlink="http://www.w3.org/1999/xlink" width="1029.487187pt" height="604.337812pt" viewBox="0 0 1029.487187 604.337812" xmlns="http://www.w3.org/2000/svg" version="1.1">
 <metadata>
  <rdf:RDF xmlns:dc="http://purl.org/dc/elements/1.1/" xmlns:cc="http://creativecommons.org/ns#" xmlns:rdf="http://www.w3.org/1999/02/22-rdf-syntax-ns#">
   <cc:Work>
    <dc:type rdf:resource="http://purl.org/dc/dcmitype/StillImage"/>
    <dc:date>2024-02-03T17:06:15.662890</dc:date>
    <dc:format>image/svg+xml</dc:format>
    <dc:creator>
     <cc:Agent>
      <dc:title>Matplotlib v3.5.2, https://matplotlib.org/</dc:title>
     </cc:Agent>
    </dc:creator>
   </cc:Work>
  </rdf:RDF>
 </metadata>
 <defs>
  <style type="text/css">*{stroke-linejoin: round; stroke-linecap: butt}</style>
 </defs>
 <g id="figure_1">
  <g id="patch_1">
   <path d="M 0 604.337812 
L 1029.487187 604.337812 
L 1029.487187 0 
L 0 0 
z
" style="fill: #ffffff"/>
  </g>
  <g id="axes_1">
   <g id="patch_2">
    <path d="M 55.797188 554.2 
L 1022.287187 554.2 
L 1022.287187 7.2 
L 55.797188 7.2 
z
" style="fill: #ffffff"/>
   </g>
   <g id="matplotlib.axis_1">
    <g id="xtick_1">
     <g id="line2d_1">
      <defs>
       <path id="m8b5cc42740" d="M 0 0 
L 0 3.5 
" style="stroke: #000000; stroke-width: 0.8"/>
      </defs>
      <g>
       <use xlink:href="#m8b5cc42740" x="144.42013" y="554.2" style="stroke: #000000; stroke-width: 0.8"/>
      </g>
     </g>
     <g id="text_1">
      <!-- −6 -->
      <g transform="translate(136.75138 568.798437)scale(0.1 -0.1)">
       <defs>
        <path id="DejaVuSans-Bold-2212" d="M 678 2375 
L 4684 2375 
L 4684 1638 
L 678 1638 
L 678 2375 
z
" transform="scale(0.015625)"/>
        <path id="DejaVuSans-Bold-36" d="M 2316 2303 
Q 2000 2303 1842 2098 
Q 1684 1894 1684 1484 
Q 1684 1075 1842 870 
Q 2000 666 2316 666 
Q 2634 666 2792 870 
Q 2950 1075 2950 1484 
Q 2950 1894 2792 2098 
Q 2634 2303 2316 2303 
z
M 3803 4544 
L 3803 3681 
Q 3506 3822 3243 3889 
Q 2981 3956 2731 3956 
Q 2194 3956 1894 3657 
Q 1594 3359 1544 2772 
Q 1750 2925 1990 3001 
Q 2231 3078 2516 3078 
Q 3231 3078 3670 2659 
Q 4109 2241 4109 1563 
Q 4109 813 3618 361 
Q 3128 -91 2303 -91 
Q 1394 -91 895 523 
Q 397 1138 397 2266 
Q 397 3422 980 4083 
Q 1563 4744 2578 4744 
Q 2900 4744 3203 4694 
Q 3506 4644 3803 4544 
z
" transform="scale(0.015625)"/>
       </defs>
       <use xlink:href="#DejaVuSans-Bold-2212"/>
       <use xlink:href="#DejaVuSans-Bold-36" x="83.789062"/>
      </g>
     </g>
    </g>
    <g id="xtick_2">
     <g id="line2d_2">
      <g>
       <use xlink:href="#m8b5cc42740" x="275.960816" y="554.2" style="stroke: #000000; stroke-width: 0.8"/>
      </g>
     </g>
     <g id="text_2">
      <!-- −4 -->
      <g transform="translate(268.292066 568.798437)scale(0.1 -0.1)">
       <defs>
        <path id="DejaVuSans-Bold-34" d="M 2356 3675 
L 1038 1722 
L 2356 1722 
L 2356 3675 
z
M 2156 4666 
L 3494 4666 
L 3494 1722 
L 4159 1722 
L 4159 850 
L 3494 850 
L 3494 0 
L 2356 0 
L 2356 850 
L 288 850 
L 288 1881 
L 2156 4666 
z
" transform="scale(0.015625)"/>
       </defs>
       <use xlink:href="#DejaVuSans-Bold-2212"/>
       <use xlink:href="#DejaVuSans-Bold-34" x="83.789062"/>
      </g>
     </g>
    </g>
    <g id="xtick_3">
     <g id="line2d_3">
      <g>
       <use xlink:href="#m8b5cc42740" x="407.501502" y="554.2" style="stroke: #000000; stroke-width: 0.8"/>
      </g>
     </g>
     <g id="text_3">
      <!-- −2 -->
      <g transform="translate(399.832752 568.798437)scale(0.1 -0.1)">
       <defs>
        <path id="DejaVuSans-Bold-32" d="M 1844 884 
L 3897 884 
L 3897 0 
L 506 0 
L 506 884 
L 2209 2388 
Q 2438 2594 2547 2791 
Q 2656 2988 2656 3200 
Q 2656 3528 2436 3728 
Q 2216 3928 1850 3928 
Q 1569 3928 1234 3808 
Q 900 3688 519 3450 
L 519 4475 
Q 925 4609 1322 4679 
Q 1719 4750 2100 4750 
Q 2938 4750 3402 4381 
Q 3866 4013 3866 3353 
Q 3866 2972 3669 2642 
Q 3472 2313 2841 1759 
L 1844 884 
z
" transform="scale(0.015625)"/>
       </defs>
       <use xlink:href="#DejaVuSans-Bold-2212"/>
       <use xlink:href="#DejaVuSans-Bold-32" x="83.789062"/>
      </g>
     </g>
    </g>
    <g id="xtick_4">
     <g id="line2d_4">
      <g>
       <use xlink:href="#m8b5cc42740" x="539.042187" y="554.2" style="stroke: #000000; stroke-width: 0.8"/>
      </g>
     </g>
     <g id="text_4">
      <!-- 0 -->
      <g transform="translate(535.563281 568.798437)scale(0.1 -0.1)">
       <defs>
        <path id="DejaVuSans-Bold-30" d="M 2944 2338 
Q 2944 3213 2780 3570 
Q 2616 3928 2228 3928 
Q 1841 3928 1675 3570 
Q 1509 3213 1509 2338 
Q 1509 1453 1675 1090 
Q 1841 728 2228 728 
Q 2613 728 2778 1090 
Q 2944 1453 2944 2338 
z
M 4147 2328 
Q 4147 1169 3647 539 
Q 3147 -91 2228 -91 
Q 1306 -91 806 539 
Q 306 1169 306 2328 
Q 306 3491 806 4120 
Q 1306 4750 2228 4750 
Q 3147 4750 3647 4120 
Q 4147 3491 4147 2328 
z
" transform="scale(0.015625)"/>
       </defs>
       <use xlink:href="#DejaVuSans-Bold-30"/>
      </g>
     </g>
    </g>
    <g id="xtick_5">
     <g id="line2d_5">
      <g>
       <use xlink:href="#m8b5cc42740" x="670.582873" y="554.2" style="stroke: #000000; stroke-width: 0.8"/>
      </g>
     </g>
     <g id="text_5">
      <!-- 2 -->
      <g transform="translate(667.103967 568.798437)scale(0.1 -0.1)">
       <use xlink:href="#DejaVuSans-Bold-32"/>
      </g>
     </g>
    </g>
    <g id="xtick_6">
     <g id="line2d_6">
      <g>
       <use xlink:href="#m8b5cc42740" x="802.123559" y="554.2" style="stroke: #000000; stroke-width: 0.8"/>
      </g>
     </g>
     <g id="text_6">
      <!-- 4 -->
      <g transform="translate(798.644653 568.798437)scale(0.1 -0.1)">
       <use xlink:href="#DejaVuSans-Bold-34"/>
      </g>
     </g>
    </g>
    <g id="xtick_7">
     <g id="line2d_7">
      <g>
       <use xlink:href="#m8b5cc42740" x="933.664245" y="554.2" style="stroke: #000000; stroke-width: 0.8"/>
      </g>
     </g>
     <g id="text_7">
      <!-- 6 -->
      <g transform="translate(930.185338 568.798437)scale(0.1 -0.1)">
       <use xlink:href="#DejaVuSans-Bold-36"/>
      </g>
     </g>
    </g>
    <g id="text_8">
     <!-- 1st PC: 77.82 % -->
     <g transform="translate(437.324687 592.354531)scale(0.23 -0.23)">
      <defs>
       <path id="DejaVuSans-Bold-31" d="M 750 831 
L 1813 831 
L 1813 3847 
L 722 3622 
L 722 4441 
L 1806 4666 
L 2950 4666 
L 2950 831 
L 4013 831 
L 4013 0 
L 750 0 
L 750 831 
z
" transform="scale(0.015625)"/>
       <path id="DejaVuSans-Bold-73" d="M 3272 3391 
L 3272 2541 
Q 2913 2691 2578 2766 
Q 2244 2841 1947 2841 
Q 1628 2841 1473 2761 
Q 1319 2681 1319 2516 
Q 1319 2381 1436 2309 
Q 1553 2238 1856 2203 
L 2053 2175 
Q 2913 2066 3209 1816 
Q 3506 1566 3506 1031 
Q 3506 472 3093 190 
Q 2681 -91 1863 -91 
Q 1516 -91 1145 -36 
Q 775 19 384 128 
L 384 978 
Q 719 816 1070 734 
Q 1422 653 1784 653 
Q 2113 653 2278 743 
Q 2444 834 2444 1013 
Q 2444 1163 2330 1236 
Q 2216 1309 1875 1350 
L 1678 1375 
Q 931 1469 631 1722 
Q 331 1975 331 2491 
Q 331 3047 712 3315 
Q 1094 3584 1881 3584 
Q 2191 3584 2531 3537 
Q 2872 3491 3272 3391 
z
" transform="scale(0.015625)"/>
       <path id="DejaVuSans-Bold-74" d="M 1759 4494 
L 1759 3500 
L 2913 3500 
L 2913 2700 
L 1759 2700 
L 1759 1216 
Q 1759 972 1856 886 
Q 1953 800 2241 800 
L 2816 800 
L 2816 0 
L 1856 0 
Q 1194 0 917 276 
Q 641 553 641 1216 
L 641 2700 
L 84 2700 
L 84 3500 
L 641 3500 
L 641 4494 
L 1759 4494 
z
" transform="scale(0.015625)"/>
       <path id="DejaVuSans-Bold-20" transform="scale(0.015625)"/>
       <path id="DejaVuSans-Bold-50" d="M 588 4666 
L 2584 4666 
Q 3475 4666 3951 4270 
Q 4428 3875 4428 3144 
Q 4428 2409 3951 2014 
Q 3475 1619 2584 1619 
L 1791 1619 
L 1791 0 
L 588 0 
L 588 4666 
z
M 1791 3794 
L 1791 2491 
L 2456 2491 
Q 2806 2491 2997 2661 
Q 3188 2831 3188 3144 
Q 3188 3456 2997 3625 
Q 2806 3794 2456 3794 
L 1791 3794 
z
" transform="scale(0.015625)"/>
       <path id="DejaVuSans-Bold-43" d="M 4288 256 
Q 3956 84 3597 -3 
Q 3238 -91 2847 -91 
Q 1681 -91 1000 561 
Q 319 1213 319 2328 
Q 319 3447 1000 4098 
Q 1681 4750 2847 4750 
Q 3238 4750 3597 4662 
Q 3956 4575 4288 4403 
L 4288 3438 
Q 3953 3666 3628 3772 
Q 3303 3878 2944 3878 
Q 2300 3878 1931 3465 
Q 1563 3053 1563 2328 
Q 1563 1606 1931 1193 
Q 2300 781 2944 781 
Q 3303 781 3628 887 
Q 3953 994 4288 1222 
L 4288 256 
z
" transform="scale(0.015625)"/>
       <path id="DejaVuSans-Bold-3a" d="M 716 3500 
L 1844 3500 
L 1844 2291 
L 716 2291 
L 716 3500 
z
M 716 1209 
L 1844 1209 
L 1844 0 
L 716 0 
L 716 1209 
z
" transform="scale(0.015625)"/>
       <path id="DejaVuSans-Bold-37" d="M 428 4666 
L 3944 4666 
L 3944 3988 
L 2125 0 
L 953 0 
L 2675 3781 
L 428 3781 
L 428 4666 
z
" transform="scale(0.015625)"/>
       <path id="DejaVuSans-Bold-2e" d="M 653 1209 
L 1778 1209 
L 1778 0 
L 653 0 
L 653 1209 
z
" transform="scale(0.015625)"/>
       <path id="DejaVuSans-Bold-38" d="M 2228 2088 
Q 1891 2088 1709 1903 
Q 1528 1719 1528 1375 
Q 1528 1031 1709 848 
Q 1891 666 2228 666 
Q 2563 666 2741 848 
Q 2919 1031 2919 1375 
Q 2919 1722 2741 1905 
Q 2563 2088 2228 2088 
z
M 1350 2484 
Q 925 2613 709 2878 
Q 494 3144 494 3541 
Q 494 4131 934 4440 
Q 1375 4750 2228 4750 
Q 3075 4750 3515 4442 
Q 3956 4134 3956 3541 
Q 3956 3144 3739 2878 
Q 3522 2613 3097 2484 
Q 3572 2353 3814 2058 
Q 4056 1763 4056 1313 
Q 4056 619 3595 264 
Q 3134 -91 2228 -91 
Q 1319 -91 855 264 
Q 391 619 391 1313 
Q 391 1763 633 2058 
Q 875 2353 1350 2484 
z
M 1631 3419 
Q 1631 3141 1786 2991 
Q 1941 2841 2228 2841 
Q 2509 2841 2662 2991 
Q 2816 3141 2816 3419 
Q 2816 3697 2662 3845 
Q 2509 3994 2228 3994 
Q 1941 3994 1786 3844 
Q 1631 3694 1631 3419 
z
" transform="scale(0.015625)"/>
       <path id="DejaVuSans-Bold-25" d="M 4959 1925 
Q 4738 1925 4616 1733 
Q 4494 1541 4494 1184 
Q 4494 825 4614 633 
Q 4734 441 4959 441 
Q 5184 441 5303 633 
Q 5422 825 5422 1184 
Q 5422 1541 5301 1733 
Q 5181 1925 4959 1925 
z
M 4959 2450 
Q 5541 2450 5875 2112 
Q 6209 1775 6209 1184 
Q 6209 594 5875 251 
Q 5541 -91 4959 -91 
Q 4378 -91 4042 251 
Q 3706 594 3706 1184 
Q 3706 1772 4042 2111 
Q 4378 2450 4959 2450 
z
M 2094 -91 
L 1403 -91 
L 4319 4750 
L 5013 4750 
L 2094 -91 
z
M 1453 4750 
Q 2034 4750 2367 4411 
Q 2700 4072 2700 3481 
Q 2700 2891 2367 2550 
Q 2034 2209 1453 2209 
Q 872 2209 539 2550 
Q 206 2891 206 3481 
Q 206 4072 539 4411 
Q 872 4750 1453 4750 
z
M 1453 4225 
Q 1228 4225 1106 4031 
Q 984 3838 984 3481 
Q 984 3122 1106 2926 
Q 1228 2731 1453 2731 
Q 1678 2731 1798 2926 
Q 1919 3122 1919 3481 
Q 1919 3838 1797 4031 
Q 1675 4225 1453 4225 
z
" transform="scale(0.015625)"/>
      </defs>
      <use xlink:href="#DejaVuSans-Bold-31"/>
      <use xlink:href="#DejaVuSans-Bold-73" x="69.580078"/>
      <use xlink:href="#DejaVuSans-Bold-74" x="129.101562"/>
      <use xlink:href="#DejaVuSans-Bold-20" x="176.904297"/>
      <use xlink:href="#DejaVuSans-Bold-50" x="211.71875"/>
      <use xlink:href="#DejaVuSans-Bold-43" x="285.009766"/>
      <use xlink:href="#DejaVuSans-Bold-3a" x="358.398438"/>
      <use xlink:href="#DejaVuSans-Bold-20" x="398.388672"/>
      <use xlink:href="#DejaVuSans-Bold-37" x="433.203125"/>
      <use xlink:href="#DejaVuSans-Bold-37" x="502.783203"/>
      <use xlink:href="#DejaVuSans-Bold-2e" x="572.363281"/>
      <use xlink:href="#DejaVuSans-Bold-38" x="610.351562"/>
      <use xlink:href="#DejaVuSans-Bold-32" x="679.931641"/>
      <use xlink:href="#DejaVuSans-Bold-20" x="749.511719"/>
      <use xlink:href="#DejaVuSans-Bold-25" x="784.326172"/>
     </g>
    </g>
   </g>
   <g id="matplotlib.axis_2">
    <g id="ytick_1">
     <g id="line2d_8">
      <defs>
       <path id="m3fba086b10" d="M 0 0 
L -3.5 0 
" style="stroke: #000000; stroke-width: 0.8"/>
      </defs>
      <g>
       <use xlink:href="#m3fba086b10" x="55.797188" y="505.198575" style="stroke: #000000; stroke-width: 0.8"/>
      </g>
     </g>
     <g id="text_9">
      <!-- −3 -->
      <g transform="translate(33.459688 508.997794)scale(0.1 -0.1)">
       <defs>
        <path id="DejaVuSans-Bold-33" d="M 2981 2516 
Q 3453 2394 3698 2092 
Q 3944 1791 3944 1325 
Q 3944 631 3412 270 
Q 2881 -91 1863 -91 
Q 1503 -91 1142 -33 
Q 781 25 428 141 
L 428 1069 
Q 766 900 1098 814 
Q 1431 728 1753 728 
Q 2231 728 2486 893 
Q 2741 1059 2741 1369 
Q 2741 1688 2480 1852 
Q 2219 2016 1709 2016 
L 1228 2016 
L 1228 2791 
L 1734 2791 
Q 2188 2791 2409 2933 
Q 2631 3075 2631 3366 
Q 2631 3634 2415 3781 
Q 2200 3928 1806 3928 
Q 1516 3928 1219 3862 
Q 922 3797 628 3669 
L 628 4550 
Q 984 4650 1334 4700 
Q 1684 4750 2022 4750 
Q 2931 4750 3382 4451 
Q 3834 4153 3834 3553 
Q 3834 3144 3618 2883 
Q 3403 2622 2981 2516 
z
" transform="scale(0.015625)"/>
       </defs>
       <use xlink:href="#DejaVuSans-Bold-2212"/>
       <use xlink:href="#DejaVuSans-Bold-33" x="83.789062"/>
      </g>
     </g>
    </g>
    <g id="ytick_2">
     <g id="line2d_9">
      <g>
       <use xlink:href="#m3fba086b10" x="55.797188" y="430.365717" style="stroke: #000000; stroke-width: 0.8"/>
      </g>
     </g>
     <g id="text_10">
      <!-- −2 -->
      <g transform="translate(33.459688 434.164935)scale(0.1 -0.1)">
       <use xlink:href="#DejaVuSans-Bold-2212"/>
       <use xlink:href="#DejaVuSans-Bold-32" x="83.789062"/>
      </g>
     </g>
    </g>
    <g id="ytick_3">
     <g id="line2d_10">
      <g>
       <use xlink:href="#m3fba086b10" x="55.797188" y="355.532858" style="stroke: #000000; stroke-width: 0.8"/>
      </g>
     </g>
     <g id="text_11">
      <!-- −1 -->
      <g transform="translate(33.459688 359.332077)scale(0.1 -0.1)">
       <use xlink:href="#DejaVuSans-Bold-2212"/>
       <use xlink:href="#DejaVuSans-Bold-31" x="83.789062"/>
      </g>
     </g>
    </g>
    <g id="ytick_4">
     <g id="line2d_11">
      <g>
       <use xlink:href="#m3fba086b10" x="55.797188" y="280.7" style="stroke: #000000; stroke-width: 0.8"/>
      </g>
     </g>
     <g id="text_12">
      <!-- 0 -->
      <g transform="translate(41.839375 284.499219)scale(0.1 -0.1)">
       <use xlink:href="#DejaVuSans-Bold-30"/>
      </g>
     </g>
    </g>
    <g id="ytick_5">
     <g id="line2d_12">
      <g>
       <use xlink:href="#m3fba086b10" x="55.797188" y="205.867142" style="stroke: #000000; stroke-width: 0.8"/>
      </g>
     </g>
     <g id="text_13">
      <!-- 1 -->
      <g transform="translate(41.839375 209.66636)scale(0.1 -0.1)">
       <use xlink:href="#DejaVuSans-Bold-31"/>
      </g>
     </g>
    </g>
    <g id="ytick_6">
     <g id="line2d_13">
      <g>
       <use xlink:href="#m3fba086b10" x="55.797188" y="131.034283" style="stroke: #000000; stroke-width: 0.8"/>
      </g>
     </g>
     <g id="text_14">
      <!-- 2 -->
      <g transform="translate(41.839375 134.833502)scale(0.1 -0.1)">
       <use xlink:href="#DejaVuSans-Bold-32"/>
      </g>
     </g>
    </g>
    <g id="ytick_7">
     <g id="line2d_14">
      <g>
       <use xlink:href="#m3fba086b10" x="55.797188" y="56.201425" style="stroke: #000000; stroke-width: 0.8"/>
      </g>
     </g>
     <g id="text_15">
      <!-- 3 -->
      <g transform="translate(41.839375 60.000644)scale(0.1 -0.1)">
       <use xlink:href="#DejaVuSans-Bold-33"/>
      </g>
     </g>
    </g>
    <g id="text_16">
     <!-- 2nd PC: 19.94 % -->
     <g transform="translate(24.676406 386.494609)rotate(-90)scale(0.23 -0.23)">
      <defs>
       <path id="DejaVuSans-Bold-6e" d="M 4056 2131 
L 4056 0 
L 2931 0 
L 2931 347 
L 2931 1631 
Q 2931 2084 2911 2256 
Q 2891 2428 2841 2509 
Q 2775 2619 2662 2680 
Q 2550 2741 2406 2741 
Q 2056 2741 1856 2470 
Q 1656 2200 1656 1722 
L 1656 0 
L 538 0 
L 538 3500 
L 1656 3500 
L 1656 2988 
Q 1909 3294 2193 3439 
Q 2478 3584 2822 3584 
Q 3428 3584 3742 3212 
Q 4056 2841 4056 2131 
z
" transform="scale(0.015625)"/>
       <path id="DejaVuSans-Bold-64" d="M 2919 2988 
L 2919 4863 
L 4044 4863 
L 4044 0 
L 2919 0 
L 2919 506 
Q 2688 197 2409 53 
Q 2131 -91 1766 -91 
Q 1119 -91 703 423 
Q 288 938 288 1747 
Q 288 2556 703 3070 
Q 1119 3584 1766 3584 
Q 2128 3584 2408 3439 
Q 2688 3294 2919 2988 
z
M 2181 722 
Q 2541 722 2730 984 
Q 2919 1247 2919 1747 
Q 2919 2247 2730 2509 
Q 2541 2772 2181 2772 
Q 1825 2772 1636 2509 
Q 1447 2247 1447 1747 
Q 1447 1247 1636 984 
Q 1825 722 2181 722 
z
" transform="scale(0.015625)"/>
       <path id="DejaVuSans-Bold-39" d="M 641 103 
L 641 966 
Q 928 831 1190 764 
Q 1453 697 1709 697 
Q 2247 697 2547 995 
Q 2847 1294 2900 1881 
Q 2688 1725 2447 1647 
Q 2206 1569 1925 1569 
Q 1209 1569 770 1986 
Q 331 2403 331 3084 
Q 331 3838 820 4291 
Q 1309 4744 2131 4744 
Q 3044 4744 3544 4128 
Q 4044 3513 4044 2388 
Q 4044 1231 3459 570 
Q 2875 -91 1856 -91 
Q 1528 -91 1228 -42 
Q 928 6 641 103 
z
M 2125 2350 
Q 2441 2350 2600 2554 
Q 2759 2759 2759 3169 
Q 2759 3575 2600 3781 
Q 2441 3988 2125 3988 
Q 1809 3988 1650 3781 
Q 1491 3575 1491 3169 
Q 1491 2759 1650 2554 
Q 1809 2350 2125 2350 
z
" transform="scale(0.015625)"/>
      </defs>
      <use xlink:href="#DejaVuSans-Bold-32"/>
      <use xlink:href="#DejaVuSans-Bold-6e" x="69.580078"/>
      <use xlink:href="#DejaVuSans-Bold-64" x="140.771484"/>
      <use xlink:href="#DejaVuSans-Bold-20" x="212.353516"/>
      <use xlink:href="#DejaVuSans-Bold-50" x="247.167969"/>
      <use xlink:href="#DejaVuSans-Bold-43" x="320.458984"/>
      <use xlink:href="#DejaVuSans-Bold-3a" x="393.847656"/>
      <use xlink:href="#DejaVuSans-Bold-20" x="433.837891"/>
      <use xlink:href="#DejaVuSans-Bold-31" x="468.652344"/>
      <use xlink:href="#DejaVuSans-Bold-39" x="538.232422"/>
      <use xlink:href="#DejaVuSans-Bold-2e" x="607.8125"/>
      <use xlink:href="#DejaVuSans-Bold-39" x="645.800781"/>
      <use xlink:href="#DejaVuSans-Bold-34" x="715.380859"/>
      <use xlink:href="#DejaVuSans-Bold-20" x="784.960938"/>
      <use xlink:href="#DejaVuSans-Bold-25" x="819.775391"/>
     </g>
    </g>
   </g>
   <g id="PathCollection_1"/>
   <g id="PathCollection_2">
    <path d="M 636.057448 7.2 
L 674.724247 67.977778 
L 658.23177 128.755556 
L 630.413528 189.533333 
L 601.088442 250.311111 
L 592.736076 264.06519 
L 528.741495 311.088889 
L 502.903177 337.980003 
" clip-path="url(#p41ef83d01e)" style="fill: none; stroke: #482173; stroke-width: 1.5"/>
    <path d="M 475.235158 333.325254 
L 465.425763 311.088889 
L 460.90557 250.311111 
L 467.424015 189.533333 
L 479.854945 128.755556 
L 485.348299 110.245333 
L 527.404878 67.977778 
L 574.632032 7.2 
" clip-path="url(#p41ef83d01e)" style="fill: none; stroke: #482173; stroke-width: 1.5"/>
   </g>
   <g id="PathCollection_3">
    <path d="M 777.172805 7.2 
L 772.562195 67.977778 
L 749.521594 128.755556 
L 719.535158 189.533333 
L 700.123854 219.310731 
L 674.534652 250.311111 
L 628.515317 311.088889 
L 592.736076 360.847739 
L 578.816359 371.866667 
L 523.286665 416.636445 
" clip-path="url(#p41ef83d01e)" style="fill: none; stroke: #433e85; stroke-width: 1.5"/>
    <path d="M 482.528526 444.170579 
L 461.924457 432.644444 
L 407.218017 371.866667 
L 389.857267 311.088889 
L 393.439823 250.311111 
L 407.121754 189.533333 
L 424.043306 128.755556 
L 442.887231 67.977778 
L 466.324978 7.2 
" clip-path="url(#p41ef83d01e)" style="fill: none; stroke: #433e85; stroke-width: 1.5"/>
   </g>
   <g id="PathCollection_4">
    <path d="M 854.571034 7.2 
L 842.361786 67.977778 
L 816.004652 128.755556 
L 807.511632 141.935811 
L 777.537779 189.533333 
L 737.057791 250.311111 
L 700.123854 295.578739 
L 687.054576 311.088889 
L 637.216623 371.866667 
L 592.736076 424.88415 
L 582.703323 432.644444 
L 506.142731 487.094893 
" clip-path="url(#p41ef83d01e)" style="fill: none; stroke: #38588c; stroke-width: 1.5"/>
    <path d="M 461.174302 493.135718 
L 377.960521 446.77559 
L 369.10501 432.644444 
L 348.535073 371.866667 
L 341.430464 311.088889 
L 343.712091 250.311111 
L 353.417697 189.533333 
L 368.900115 128.755556 
L 377.960521 99.304587 
L 388.11611 67.977778 
L 409.882533 7.2 
" clip-path="url(#p41ef83d01e)" style="fill: none; stroke: #38588c; stroke-width: 1.5"/>
   </g>
   <g id="PathCollection_5">
    <path d="M 925.115276 7.2 
L 914.89941 31.345366 
L 903.533199 67.977778 
L 875.355609 128.755556 
L 836.896521 189.533333 
L 807.511632 229.977191 
L 793.740349 250.311111 
L 746.257284 311.088889 
L 700.123854 358.317034 
L 688.659936 371.866667 
L 636.553088 432.644444 
L 592.736076 475.513532 
L 588.09178 478.771666 
" clip-path="url(#p41ef83d01e)" style="fill: none; stroke: #2d708e; stroke-width: 1.5"/>
    <path d="M 546.406001 508.180221 
L 485.348299 551.49726 
L 377.960521 519.62291 
L 355.238786 493.422222 
L 320.532499 432.644444 
L 303.928584 371.866667 
L 298.07495 311.088889 
L 299.265967 250.311111 
L 305.892362 189.533333 
L 316.923173 128.755556 
L 332.3188 67.977778 
L 351.993777 7.2 
" clip-path="url(#p41ef83d01e)" style="fill: none; stroke: #2d708e; stroke-width: 1.5"/>
   </g>
   <g id="PathCollection_6">
    <path d="M 344.1866 554.2 
L 298.174924 493.422222 
L 271.959989 432.644444 
L 270.572743 426.462273 
L 258.110311 371.866667 
L 252.046125 311.088889 
L 251.718535 272.771195 
" clip-path="url(#p41ef83d01e)" style="fill: none; stroke: #25858e; stroke-width: 1.5"/>
    <path d="M 253.113821 227.902558 
L 255.831697 189.533333 
L 263.994271 128.755556 
L 270.572743 97.463313 
L 276.287904 67.977778 
L 292.222133 7.2 
" clip-path="url(#p41ef83d01e)" style="fill: none; stroke: #25858e; stroke-width: 1.5"/>
    <path d="M 1008.529423 7.2 
L 974.723594 67.977778 
L 938.037215 128.755556 
L 914.89941 161.657276 
L 897.705494 189.533333 
L 852.858557 250.311111 
L 819.603171 293.111373 
" clip-path="url(#p41ef83d01e)" style="fill: none; stroke: #25858e; stroke-width: 1.5"/>
    <path d="M 789.774896 327.513399 
L 746.90341 371.866667 
L 700.123854 417.094078 
L 686.719176 432.644444 
L 627.757333 493.422222 
L 592.736076 522.864932 
L 547.969984 554.2 
" clip-path="url(#p41ef83d01e)" style="fill: none; stroke: #25858e; stroke-width: 1.5"/>
   </g>
   <g id="PathCollection_7">
    <path d="M 273.011708 554.2 
L 270.572743 550.417155 
L 241.077393 493.422222 
L 220.853786 432.644444 
L 208.699347 371.866667 
L 204.072861 333.451443 
" clip-path="url(#p41ef83d01e)" style="fill: none; stroke: #1e9b8a; stroke-width: 1.5"/>
    <path d="M 200.051557 288.612319 
L 197.788409 250.311111 
L 198.434556 189.533333 
L 203.223256 128.755556 
L 211.923497 67.977778 
L 225.146417 7.2 
" clip-path="url(#p41ef83d01e)" style="fill: none; stroke: #1e9b8a; stroke-width: 1.5"/>
    <path d="M 1022.287187 105.724383 
L 1007.368264 128.755556 
L 964.228974 189.533333 
L 914.89941 247.426124 
L 912.758423 250.311111 
L 864.086244 311.088889 
L 823.162488 354.742467 
" clip-path="url(#p41ef83d01e)" style="fill: none; stroke: #1e9b8a; stroke-width: 1.5"/>
    <path d="M 791.175193 387.508589 
L 745.232284 432.644444 
L 700.123854 475.256933 
L 682.898647 493.422222 
L 614.067021 554.2 
" clip-path="url(#p41ef83d01e)" style="fill: none; stroke: #1e9b8a; stroke-width: 1.5"/>
   </g>
   <g id="PathCollection_8">
    <path d="M 205.858519 554.2 
L 183.948318 493.422222 
L 169.673094 432.644444 
L 163.184965 395.175437 
L 157.465408 371.866667 
L 149.856588 333.206566 
" clip-path="url(#p41ef83d01e)" style="fill: none; stroke: #2ab07f; stroke-width: 1.5"/>
    <path d="M 142.545207 288.757556 
L 137.45204 250.311111 
L 134.299009 189.533333 
L 135.810388 128.755556 
L 140.973987 67.977778 
L 150.4959 7.2 
" clip-path="url(#p41ef83d01e)" style="fill: none; stroke: #2ab07f; stroke-width: 1.5"/>
    <path d="M 1022.287187 203.071916 
L 983.56543 250.311111 
L 925.046615 311.088889 
L 914.89941 321.123281 
L 872.130591 371.866667 
L 824.313388 416.316056 
" clip-path="url(#p41ef83d01e)" style="fill: none; stroke: #2ab07f; stroke-width: 1.5"/>
    <path d="M 791.635876 448.429794 
L 748.445316 493.422222 
L 700.123854 535.424158 
L 679.890868 554.2 
" clip-path="url(#p41ef83d01e)" style="fill: none; stroke: #2ab07f; stroke-width: 1.5"/>
   </g>
   <g id="PathCollection_9">
    <path d="M 133.586376 554.2 
L 114.645466 493.422222 
L 98.759535 432.644444 
L 84.93803 371.866667 
L 77.790031 333.301664 
" clip-path="url(#p41ef83d01e)" style="fill: none; stroke: #52c569; stroke-width: 1.5"/>
    <path d="M 70.54916 288.725837 
L 65.183262 250.311111 
L 59.438751 189.533333 
L 55.797188 132.084489 
" clip-path="url(#p41ef83d01e)" style="fill: none; stroke: #52c569; stroke-width: 1.5"/>
    <path d="M 1022.287187 289.820838 
L 1003.114223 311.088889 
L 944.572326 371.866667 
L 914.89941 400.917789 
L 901.017535 415.848704 
" clip-path="url(#p41ef83d01e)" style="fill: none; stroke: #52c569; stroke-width: 1.5"/>
    <path d="M 868.864583 448.59752 
L 822.398409 493.422222 
L 807.511632 507.777949 
L 761.678463 554.2 
" clip-path="url(#p41ef83d01e)" style="fill: none; stroke: #52c569; stroke-width: 1.5"/>
   </g>
   <g id="PathCollection_10">
    <path d="M 1022.287187 382.190415 
L 974.553263 432.644444 
L 931.731566 476.957554 
" clip-path="url(#p41ef83d01e)" style="fill: none; stroke: #86d549; stroke-width: 1.5"/>
    <path d="M 900.091545 510.047955 
L 858.254401 554.2 
" clip-path="url(#p41ef83d01e)" style="fill: none; stroke: #86d549; stroke-width: 1.5"/>
   </g>
   <g id="PathCollection_11">
    <path d="M 1002.898875 510.746199 
L 965.316432 554.2 
" clip-path="url(#p41ef83d01e)" style="fill: none; stroke: #c2df23; stroke-width: 1.5"/>
   </g>
   <g id="PathCollection_12"/>
   <g id="line2d_15">
    <path d="M 822.219349 273.259734 
L 647.533834 134.719017 
L 618.609463 161.905569 
L 595.916294 190.477115 
L 579.373158 214.418371 
L 566.723454 234.106327 
L 557.131633 249.939069 
L 549.87035 262.278254 
L 543.929442 272.459458 
L 539.042187 280.7 
" clip-path="url(#p41ef83d01e)" style="fill: none; stroke: #e41a1c; stroke-width: 8; stroke-linecap: square"/>
    <defs>
     <path id="m7c4bbd4343" d="M 0 4 
C 1.060812 4 2.078319 3.578535 2.828427 2.828427 
C 3.578535 2.078319 4 1.060812 4 0 
C 4 -1.060812 3.578535 -2.078319 2.828427 -2.828427 
C 2.078319 -3.578535 1.060812 -4 0 -4 
C -1.060812 -4 -2.078319 -3.578535 -2.828427 -2.828427 
C -3.578535 -2.078319 -4 -1.060812 -4 0 
C -4 1.060812 -3.578535 2.078319 -2.828427 2.828427 
C -2.078319 3.578535 -1.060812 4 0 4 
z
" style="stroke: #000000"/>
    </defs>
    <g clip-path="url(#p41ef83d01e)">
     <use xlink:href="#m7c4bbd4343" x="822.219349" y="273.259734" style="fill-opacity: 0; stroke: #000000"/>
     <use xlink:href="#m7c4bbd4343" x="647.533834" y="134.719017" style="fill-opacity: 0; stroke: #000000"/>
     <use xlink:href="#m7c4bbd4343" x="618.609463" y="161.905569" style="fill-opacity: 0; stroke: #000000"/>
     <use xlink:href="#m7c4bbd4343" x="595.916294" y="190.477115" style="fill-opacity: 0; stroke: #000000"/>
     <use xlink:href="#m7c4bbd4343" x="579.373158" y="214.418371" style="fill-opacity: 0; stroke: #000000"/>
     <use xlink:href="#m7c4bbd4343" x="566.723454" y="234.106327" style="fill-opacity: 0; stroke: #000000"/>
     <use xlink:href="#m7c4bbd4343" x="557.131633" y="249.939069" style="fill-opacity: 0; stroke: #000000"/>
     <use xlink:href="#m7c4bbd4343" x="549.87035" y="262.278254" style="fill-opacity: 0; stroke: #000000"/>
     <use xlink:href="#m7c4bbd4343" x="543.929442" y="272.459458" style="fill-opacity: 0; stroke: #000000"/>
     <use xlink:href="#m7c4bbd4343" x="539.042187" y="280.7" style="fill-opacity: 0; stroke: #000000"/>
    </g>
   </g>
   <g id="line2d_16">
    <path d="M 947.231711 207.999478 
L 936.854644 196.797152 
L 936.009288 197.778392 
L 935.583113 198.679658 
L 935.58697 198.921955 
L 935.862577 199.06376 
L 936.365432 199.423311 
L 936.705989 199.520771 
L 936.718534 200.061539 
L 936.853546 199.966105 
" clip-path="url(#p41ef83d01e)" style="fill: none; stroke: #377eb8; stroke-width: 8; stroke-linecap: square"/>
    <g clip-path="url(#p41ef83d01e)">
     <use xlink:href="#m7c4bbd4343" x="947.231711" y="207.999478" style="fill-opacity: 0; stroke: #000000"/>
     <use xlink:href="#m7c4bbd4343" x="936.854644" y="196.797152" style="fill-opacity: 0; stroke: #000000"/>
     <use xlink:href="#m7c4bbd4343" x="936.009288" y="197.778392" style="fill-opacity: 0; stroke: #000000"/>
     <use xlink:href="#m7c4bbd4343" x="935.583113" y="198.679658" style="fill-opacity: 0; stroke: #000000"/>
     <use xlink:href="#m7c4bbd4343" x="935.58697" y="198.921955" style="fill-opacity: 0; stroke: #000000"/>
     <use xlink:href="#m7c4bbd4343" x="935.862577" y="199.06376" style="fill-opacity: 0; stroke: #000000"/>
     <use xlink:href="#m7c4bbd4343" x="936.365432" y="199.423311" style="fill-opacity: 0; stroke: #000000"/>
     <use xlink:href="#m7c4bbd4343" x="936.705989" y="199.520771" style="fill-opacity: 0; stroke: #000000"/>
     <use xlink:href="#m7c4bbd4343" x="936.718534" y="200.061539" style="fill-opacity: 0; stroke: #000000"/>
     <use xlink:href="#m7c4bbd4343" x="936.853546" y="199.966105" style="fill-opacity: 0; stroke: #000000"/>
    </g>
   </g>
   <g id="line2d_17">
    <path d="M 997.909278 20.22381 
L 999.275521 21.372377 
L 998.434023 21.071461 
L 997.95124 20.980006 
L 997.915738 21.443761 
L 997.789507 21.871869 
L 997.849189 22.249075 
L 997.929067 22.708512 
L 997.622287 22.767942 
L 998.040464 23.421282 
" clip-path="url(#p41ef83d01e)" style="fill: none; stroke: #4daf4a; stroke-width: 8; stroke-linecap: square"/>
    <g clip-path="url(#p41ef83d01e)">
     <use xlink:href="#m7c4bbd4343" x="997.909278" y="20.22381" style="fill-opacity: 0; stroke: #000000"/>
     <use xlink:href="#m7c4bbd4343" x="999.275521" y="21.372377" style="fill-opacity: 0; stroke: #000000"/>
     <use xlink:href="#m7c4bbd4343" x="998.434023" y="21.071461" style="fill-opacity: 0; stroke: #000000"/>
     <use xlink:href="#m7c4bbd4343" x="997.95124" y="20.980006" style="fill-opacity: 0; stroke: #000000"/>
     <use xlink:href="#m7c4bbd4343" x="997.915738" y="21.443761" style="fill-opacity: 0; stroke: #000000"/>
     <use xlink:href="#m7c4bbd4343" x="997.789507" y="21.871869" style="fill-opacity: 0; stroke: #000000"/>
     <use xlink:href="#m7c4bbd4343" x="997.849189" y="22.249075" style="fill-opacity: 0; stroke: #000000"/>
     <use xlink:href="#m7c4bbd4343" x="997.929067" y="22.708512" style="fill-opacity: 0; stroke: #000000"/>
     <use xlink:href="#m7c4bbd4343" x="997.622287" y="22.767942" style="fill-opacity: 0; stroke: #000000"/>
     <use xlink:href="#m7c4bbd4343" x="998.040464" y="23.421282" style="fill-opacity: 0; stroke: #000000"/>
    </g>
   </g>
   <g id="patch_3">
    <path d="M 55.797188 554.2 
L 55.797188 7.2 
" style="fill: none; stroke: #000000; stroke-width: 0.8; stroke-linejoin: miter; stroke-linecap: square"/>
   </g>
   <g id="patch_4">
    <path d="M 1022.287187 554.2 
L 1022.287187 7.2 
" style="fill: none; stroke: #000000; stroke-width: 0.8; stroke-linejoin: miter; stroke-linecap: square"/>
   </g>
   <g id="patch_5">
    <path d="M 55.797188 554.2 
L 1022.287187 554.2 
" style="fill: none; stroke: #000000; stroke-width: 0.8; stroke-linejoin: miter; stroke-linecap: square"/>
   </g>
   <g id="patch_6">
    <path d="M 55.797188 7.2 
L 1022.287187 7.2 
" style="fill: none; stroke: #000000; stroke-width: 0.8; stroke-linejoin: miter; stroke-linecap: square"/>
   </g>
   <g id="text_17">
    <g clip-path="url(#p41ef83d01e)">
     <!-- -2.000 -->
     <g style="fill: #482173" transform="translate(467.250362 355.896131)rotate(-350.110973)scale(0.1 -0.1)">
      <defs>
       <path id="DejaVuSans-Bold-2d" d="M 347 2297 
L 2309 2297 
L 2309 1388 
L 347 1388 
L 347 2297 
z
" transform="scale(0.015625)"/>
      </defs>
      <use xlink:href="#DejaVuSans-Bold-2d"/>
      <use xlink:href="#DejaVuSans-Bold-32" x="41.503906"/>
      <use xlink:href="#DejaVuSans-Bold-2e" x="111.083984"/>
      <use xlink:href="#DejaVuSans-Bold-30" x="149.072266"/>
      <use xlink:href="#DejaVuSans-Bold-30" x="218.652344"/>
      <use xlink:href="#DejaVuSans-Bold-30" x="288.232422"/>
     </g>
    </g>
   </g>
   <g id="text_18">
    <g clip-path="url(#p41ef83d01e)">
     <!-- -1.500 -->
     <g style="fill: #433e85" transform="translate(491.122721 445.916935)rotate(-38.389526)scale(0.1 -0.1)">
      <defs>
       <path id="DejaVuSans-Bold-35" d="M 678 4666 
L 3669 4666 
L 3669 3781 
L 1638 3781 
L 1638 3059 
Q 1775 3097 1914 3117 
Q 2053 3138 2203 3138 
Q 3056 3138 3531 2711 
Q 4006 2284 4006 1522 
Q 4006 766 3489 337 
Q 2972 -91 2053 -91 
Q 1656 -91 1267 -14 
Q 878 63 494 219 
L 494 1166 
Q 875 947 1217 837 
Q 1559 728 1863 728 
Q 2300 728 2551 942 
Q 2803 1156 2803 1522 
Q 2803 1891 2551 2103 
Q 2300 2316 1863 2316 
Q 1603 2316 1309 2248 
Q 1016 2181 678 2041 
L 678 4666 
z
" transform="scale(0.015625)"/>
      </defs>
      <use xlink:href="#DejaVuSans-Bold-2d"/>
      <use xlink:href="#DejaVuSans-Bold-31" x="41.503906"/>
      <use xlink:href="#DejaVuSans-Bold-2e" x="111.083984"/>
      <use xlink:href="#DejaVuSans-Bold-35" x="149.072266"/>
      <use xlink:href="#DejaVuSans-Bold-30" x="218.652344"/>
      <use xlink:href="#DejaVuSans-Bold-30" x="288.232422"/>
     </g>
    </g>
   </g>
   <g id="text_19">
    <g clip-path="url(#p41ef83d01e)">
     <!-- -1.000 -->
     <g style="fill: #38588c" transform="translate(468.01905 507.093537)rotate(-8.026987)scale(0.1 -0.1)">
      <use xlink:href="#DejaVuSans-Bold-2d"/>
      <use xlink:href="#DejaVuSans-Bold-31" x="41.503906"/>
      <use xlink:href="#DejaVuSans-Bold-2e" x="111.083984"/>
      <use xlink:href="#DejaVuSans-Bold-30" x="149.072266"/>
      <use xlink:href="#DejaVuSans-Bold-30" x="218.652344"/>
      <use xlink:href="#DejaVuSans-Bold-30" x="288.232422"/>
     </g>
    </g>
   </g>
   <g id="text_20">
    <g clip-path="url(#p41ef83d01e)">
     <!-- -0.500 -->
     <g style="fill: #2d708e" transform="translate(554.39443 506.207685)rotate(-36.168304)scale(0.1 -0.1)">
      <use xlink:href="#DejaVuSans-Bold-2d"/>
      <use xlink:href="#DejaVuSans-Bold-30" x="41.503906"/>
      <use xlink:href="#DejaVuSans-Bold-2e" x="111.083984"/>
      <use xlink:href="#DejaVuSans-Bold-35" x="149.072266"/>
      <use xlink:href="#DejaVuSans-Bold-30" x="218.652344"/>
      <use xlink:href="#DejaVuSans-Bold-30" x="288.232422"/>
     </g>
    </g>
   </g>
   <g id="text_21">
    <g clip-path="url(#p41ef83d01e)">
     <!-- 0.000 -->
     <g style="fill: #25858e" transform="translate(253.81026 266.20161)rotate(-88.281074)scale(0.1 -0.1)">
      <use xlink:href="#DejaVuSans-Bold-30"/>
      <use xlink:href="#DejaVuSans-Bold-2e" x="69.580078"/>
      <use xlink:href="#DejaVuSans-Bold-30" x="107.568359"/>
      <use xlink:href="#DejaVuSans-Bold-30" x="177.148438"/>
      <use xlink:href="#DejaVuSans-Bold-30" x="246.728516"/>
     </g>
    </g>
   </g>
   <g id="text_22">
    <g clip-path="url(#p41ef83d01e)">
     <!-- 0.000 -->
     <g style="fill: #25858e" transform="translate(797.619062 324.989121)rotate(-50.083124)scale(0.1 -0.1)">
      <use xlink:href="#DejaVuSans-Bold-30"/>
      <use xlink:href="#DejaVuSans-Bold-2e" x="69.580078"/>
      <use xlink:href="#DejaVuSans-Bold-30" x="107.568359"/>
      <use xlink:href="#DejaVuSans-Bold-30" x="177.148438"/>
      <use xlink:href="#DejaVuSans-Bold-30" x="246.728516"/>
     </g>
    </g>
   </g>
   <g id="text_23">
    <g clip-path="url(#p41ef83d01e)">
     <!-- 0.500 -->
     <g style="fill: #1e9b8a" transform="translate(197.266921 295.570872)rotate(-274.946477)scale(0.1 -0.1)">
      <use xlink:href="#DejaVuSans-Bold-30"/>
      <use xlink:href="#DejaVuSans-Bold-2e" x="69.580078"/>
      <use xlink:href="#DejaVuSans-Bold-35" x="107.568359"/>
      <use xlink:href="#DejaVuSans-Bold-30" x="177.148438"/>
      <use xlink:href="#DejaVuSans-Bold-30" x="246.728516"/>
     </g>
    </g>
   </g>
   <g id="text_24">
    <g clip-path="url(#p41ef83d01e)">
     <!-- 0.500 -->
     <g style="fill: #1e9b8a" transform="translate(798.676549 384.841222)rotate(-46.712093)scale(0.1 -0.1)">
      <use xlink:href="#DejaVuSans-Bold-30"/>
      <use xlink:href="#DejaVuSans-Bold-2e" x="69.580078"/>
      <use xlink:href="#DejaVuSans-Bold-35" x="107.568359"/>
      <use xlink:href="#DejaVuSans-Bold-30" x="177.148438"/>
      <use xlink:href="#DejaVuSans-Bold-30" x="246.728516"/>
     </g>
    </g>
   </g>
   <g id="text_25">
    <g clip-path="url(#p41ef83d01e)">
     <!-- 1.000 -->
     <g style="fill: #2ab07f" transform="translate(140.298904 295.902209)rotate(-279.019779)scale(0.1 -0.1)">
      <use xlink:href="#DejaVuSans-Bold-31"/>
      <use xlink:href="#DejaVuSans-Bold-2e" x="69.580078"/>
      <use xlink:href="#DejaVuSans-Bold-30" x="107.568359"/>
      <use xlink:href="#DejaVuSans-Bold-30" x="177.148438"/>
      <use xlink:href="#DejaVuSans-Bold-30" x="246.728516"/>
     </g>
    </g>
   </g>
   <g id="text_26">
    <g clip-path="url(#p41ef83d01e)">
     <!-- 1.000 -->
     <g style="fill: #2ab07f" transform="translate(798.397868 445.150451)rotate(-45.512489)scale(0.1 -0.1)">
      <use xlink:href="#DejaVuSans-Bold-31"/>
      <use xlink:href="#DejaVuSans-Bold-2e" x="69.580078"/>
      <use xlink:href="#DejaVuSans-Bold-30" x="107.568359"/>
      <use xlink:href="#DejaVuSans-Bold-30" x="177.148438"/>
      <use xlink:href="#DejaVuSans-Bold-30" x="246.728516"/>
     </g>
    </g>
   </g>
   <g id="text_27">
    <g clip-path="url(#p41ef83d01e)">
     <!-- 1.500 -->
     <g style="fill: #52c569" transform="translate(68.497596 295.892192)rotate(-278.909194)scale(0.1 -0.1)">
      <use xlink:href="#DejaVuSans-Bold-31"/>
      <use xlink:href="#DejaVuSans-Bold-2e" x="69.580078"/>
      <use xlink:href="#DejaVuSans-Bold-35" x="107.568359"/>
      <use xlink:href="#DejaVuSans-Bold-30" x="177.148438"/>
      <use xlink:href="#DejaVuSans-Bold-30" x="246.728516"/>
     </g>
    </g>
   </g>
   <g id="text_28">
    <g clip-path="url(#p41ef83d01e)">
     <!-- 1.500 -->
     <g style="fill: #52c569" transform="translate(876.527677 446.022499)rotate(-46.544808)scale(0.1 -0.1)">
      <use xlink:href="#DejaVuSans-Bold-31"/>
      <use xlink:href="#DejaVuSans-Bold-2e" x="69.580078"/>
      <use xlink:href="#DejaVuSans-Bold-35" x="107.568359"/>
      <use xlink:href="#DejaVuSans-Bold-30" x="177.148438"/>
      <use xlink:href="#DejaVuSans-Bold-30" x="246.728516"/>
     </g>
    </g>
   </g>
   <g id="text_29">
    <g clip-path="url(#p41ef83d01e)">
     <!-- 2.000 -->
     <g style="fill: #86d549" transform="translate(907.125392 506.917006)rotate(-47.306113)scale(0.1 -0.1)">
      <use xlink:href="#DejaVuSans-Bold-32"/>
      <use xlink:href="#DejaVuSans-Bold-2e" x="69.580078"/>
      <use xlink:href="#DejaVuSans-Bold-30" x="107.568359"/>
      <use xlink:href="#DejaVuSans-Bold-30" x="177.148438"/>
      <use xlink:href="#DejaVuSans-Bold-30" x="246.728516"/>
     </g>
    </g>
   </g>
   <g id="text_30">
    <g clip-path="url(#p41ef83d01e)">
     <!-- 2.500 -->
     <g style="fill: #c2df23" transform="translate(1009.77447 507.278268)rotate(-49.769396)scale(0.1 -0.1)">
      <use xlink:href="#DejaVuSans-Bold-32"/>
      <use xlink:href="#DejaVuSans-Bold-2e" x="69.580078"/>
      <use xlink:href="#DejaVuSans-Bold-35" x="107.568359"/>
      <use xlink:href="#DejaVuSans-Bold-30" x="177.148438"/>
      <use xlink:href="#DejaVuSans-Bold-30" x="246.728516"/>
     </g>
    </g>
   </g>
  </g>
 </g>
 <defs>
  <clipPath id="p41ef83d01e">
   <rect x="55.797188" y="7.2" width="966.49" height="547"/>
  </clipPath>
 </defs>
</svg>
