<?xml version="1.0" encoding="utf-8" standalone="no"?>
<!DOCTYPE svg PUBLIC "-//W3C//DTD SVG 1.1//EN"
  "http://www.w3.org/Graphics/SVG/1.1/DTD/svg11.dtd">
<svg xmlns:xlink="http://www.w3.org/1999/xlink" width="1029.515pt" height="604.337812pt" viewBox="0 0 1029.515 604.337812" xmlns="http://www.w3.org/2000/svg" version="1.1">
 <metadata>
  <rdf:RDF xmlns:dc="http://purl.org/dc/elements/1.1/" xmlns:cc="http://creativecommons.org/ns#" xmlns:rdf="http://www.w3.org/1999/02/22-rdf-syntax-ns#">
   <cc:Work>
    <dc:type rdf:resource="http://purl.org/dc/dcmitype/StillImage"/>
    <dc:date>2024-02-03T17:10:31.872923</dc:date>
    <dc:format>image/svg+xml</dc:format>
    <dc:creator>
     <cc:Agent>
      <dc:title>Matplotlib v3.5.2, https://matplotlib.org/</dc:title>
     </cc:Agent>
    </dc:creator>
   </cc:Work>
  </rdf:RDF>
 </metadata>
 <defs>
  <style type="text/css">*{stroke-linejoin: round; stroke-linecap: butt}</style>
 </defs>
 <g id="figure_1">
  <g id="patch_1">
   <path d="M 0 604.337812 
L 1029.515 604.337812 
L 1029.515 0 
L 0 0 
z
" style="fill: #ffffff"/>
  </g>
  <g id="axes_1">
   <g id="patch_2">
    <path d="M 62.755 554.2 
L 1022.315 554.2 
L 1022.315 7.2 
L 62.755 7.2 
z
" style="fill: #ffffff"/>
   </g>
   <g id="matplotlib.axis_1">
    <g id="xtick_1">
     <g id="line2d_1">
      <defs>
       <path id="md430a315a8" d="M 0 0 
L 0 3.5 
" style="stroke: #000000; stroke-width: 0.8"/>
      </defs>
      <g>
       <use xlink:href="#md430a315a8" x="88.994217" y="554.2" style="stroke: #000000; stroke-width: 0.8"/>
      </g>
     </g>
     <g id="text_1">
      <!-- −8 -->
      <g transform="translate(81.325467 568.798437)scale(0.1 -0.1)">
       <defs>
        <path id="DejaVuSans-Bold-2212" d="M 678 2375 
L 4684 2375 
L 4684 1638 
L 678 1638 
L 678 2375 
z
" transform="scale(0.015625)"/>
        <path id="DejaVuSans-Bold-38" d="M 2228 2088 
Q 1891 2088 1709 1903 
Q 1528 1719 1528 1375 
Q 1528 1031 1709 848 
Q 1891 666 2228 666 
Q 2563 666 2741 848 
Q 2919 1031 2919 1375 
Q 2919 1722 2741 1905 
Q 2563 2088 2228 2088 
z
M 1350 2484 
Q 925 2613 709 2878 
Q 494 3144 494 3541 
Q 494 4131 934 4440 
Q 1375 4750 2228 4750 
Q 3075 4750 3515 4442 
Q 3956 4134 3956 3541 
Q 3956 3144 3739 2878 
Q 3522 2613 3097 2484 
Q 3572 2353 3814 2058 
Q 4056 1763 4056 1313 
Q 4056 619 3595 264 
Q 3134 -91 2228 -91 
Q 1319 -91 855 264 
Q 391 619 391 1313 
Q 391 1763 633 2058 
Q 875 2353 1350 2484 
z
M 1631 3419 
Q 1631 3141 1786 2991 
Q 1941 2841 2228 2841 
Q 2509 2841 2662 2991 
Q 2816 3141 2816 3419 
Q 2816 3697 2662 3845 
Q 2509 3994 2228 3994 
Q 1941 3994 1786 3844 
Q 1631 3694 1631 3419 
z
" transform="scale(0.015625)"/>
       </defs>
       <use xlink:href="#DejaVuSans-Bold-2212"/>
       <use xlink:href="#DejaVuSans-Bold-38" x="83.789062"/>
      </g>
     </g>
    </g>
    <g id="xtick_2">
     <g id="line2d_2">
      <g>
       <use xlink:href="#md430a315a8" x="202.379413" y="554.2" style="stroke: #000000; stroke-width: 0.8"/>
      </g>
     </g>
     <g id="text_2">
      <!-- −6 -->
      <g transform="translate(194.710663 568.798437)scale(0.1 -0.1)">
       <defs>
        <path id="DejaVuSans-Bold-36" d="M 2316 2303 
Q 2000 2303 1842 2098 
Q 1684 1894 1684 1484 
Q 1684 1075 1842 870 
Q 2000 666 2316 666 
Q 2634 666 2792 870 
Q 2950 1075 2950 1484 
Q 2950 1894 2792 2098 
Q 2634 2303 2316 2303 
z
M 3803 4544 
L 3803 3681 
Q 3506 3822 3243 3889 
Q 2981 3956 2731 3956 
Q 2194 3956 1894 3657 
Q 1594 3359 1544 2772 
Q 1750 2925 1990 3001 
Q 2231 3078 2516 3078 
Q 3231 3078 3670 2659 
Q 4109 2241 4109 1563 
Q 4109 813 3618 361 
Q 3128 -91 2303 -91 
Q 1394 -91 895 523 
Q 397 1138 397 2266 
Q 397 3422 980 4083 
Q 1563 4744 2578 4744 
Q 2900 4744 3203 4694 
Q 3506 4644 3803 4544 
z
" transform="scale(0.015625)"/>
       </defs>
       <use xlink:href="#DejaVuSans-Bold-2212"/>
       <use xlink:href="#DejaVuSans-Bold-36" x="83.789062"/>
      </g>
     </g>
    </g>
    <g id="xtick_3">
     <g id="line2d_3">
      <g>
       <use xlink:href="#md430a315a8" x="315.764609" y="554.2" style="stroke: #000000; stroke-width: 0.8"/>
      </g>
     </g>
     <g id="text_3">
      <!-- −4 -->
      <g transform="translate(308.095859 568.798437)scale(0.1 -0.1)">
       <defs>
        <path id="DejaVuSans-Bold-34" d="M 2356 3675 
L 1038 1722 
L 2356 1722 
L 2356 3675 
z
M 2156 4666 
L 3494 4666 
L 3494 1722 
L 4159 1722 
L 4159 850 
L 3494 850 
L 3494 0 
L 2356 0 
L 2356 850 
L 288 850 
L 288 1881 
L 2156 4666 
z
" transform="scale(0.015625)"/>
       </defs>
       <use xlink:href="#DejaVuSans-Bold-2212"/>
       <use xlink:href="#DejaVuSans-Bold-34" x="83.789062"/>
      </g>
     </g>
    </g>
    <g id="xtick_4">
     <g id="line2d_4">
      <g>
       <use xlink:href="#md430a315a8" x="429.149804" y="554.2" style="stroke: #000000; stroke-width: 0.8"/>
      </g>
     </g>
     <g id="text_4">
      <!-- −2 -->
      <g transform="translate(421.481054 568.798437)scale(0.1 -0.1)">
       <defs>
        <path id="DejaVuSans-Bold-32" d="M 1844 884 
L 3897 884 
L 3897 0 
L 506 0 
L 506 884 
L 2209 2388 
Q 2438 2594 2547 2791 
Q 2656 2988 2656 3200 
Q 2656 3528 2436 3728 
Q 2216 3928 1850 3928 
Q 1569 3928 1234 3808 
Q 900 3688 519 3450 
L 519 4475 
Q 925 4609 1322 4679 
Q 1719 4750 2100 4750 
Q 2938 4750 3402 4381 
Q 3866 4013 3866 3353 
Q 3866 2972 3669 2642 
Q 3472 2313 2841 1759 
L 1844 884 
z
" transform="scale(0.015625)"/>
       </defs>
       <use xlink:href="#DejaVuSans-Bold-2212"/>
       <use xlink:href="#DejaVuSans-Bold-32" x="83.789062"/>
      </g>
     </g>
    </g>
    <g id="xtick_5">
     <g id="line2d_5">
      <g>
       <use xlink:href="#md430a315a8" x="542.535" y="554.2" style="stroke: #000000; stroke-width: 0.8"/>
      </g>
     </g>
     <g id="text_5">
      <!-- 0 -->
      <g transform="translate(539.056094 568.798437)scale(0.1 -0.1)">
       <defs>
        <path id="DejaVuSans-Bold-30" d="M 2944 2338 
Q 2944 3213 2780 3570 
Q 2616 3928 2228 3928 
Q 1841 3928 1675 3570 
Q 1509 3213 1509 2338 
Q 1509 1453 1675 1090 
Q 1841 728 2228 728 
Q 2613 728 2778 1090 
Q 2944 1453 2944 2338 
z
M 4147 2328 
Q 4147 1169 3647 539 
Q 3147 -91 2228 -91 
Q 1306 -91 806 539 
Q 306 1169 306 2328 
Q 306 3491 806 4120 
Q 1306 4750 2228 4750 
Q 3147 4750 3647 4120 
Q 4147 3491 4147 2328 
z
" transform="scale(0.015625)"/>
       </defs>
       <use xlink:href="#DejaVuSans-Bold-30"/>
      </g>
     </g>
    </g>
    <g id="xtick_6">
     <g id="line2d_6">
      <g>
       <use xlink:href="#md430a315a8" x="655.920196" y="554.2" style="stroke: #000000; stroke-width: 0.8"/>
      </g>
     </g>
     <g id="text_6">
      <!-- 2 -->
      <g transform="translate(652.441289 568.798437)scale(0.1 -0.1)">
       <use xlink:href="#DejaVuSans-Bold-32"/>
      </g>
     </g>
    </g>
    <g id="xtick_7">
     <g id="line2d_7">
      <g>
       <use xlink:href="#md430a315a8" x="769.305391" y="554.2" style="stroke: #000000; stroke-width: 0.8"/>
      </g>
     </g>
     <g id="text_7">
      <!-- 4 -->
      <g transform="translate(765.826485 568.798437)scale(0.1 -0.1)">
       <use xlink:href="#DejaVuSans-Bold-34"/>
      </g>
     </g>
    </g>
    <g id="xtick_8">
     <g id="line2d_8">
      <g>
       <use xlink:href="#md430a315a8" x="882.690587" y="554.2" style="stroke: #000000; stroke-width: 0.8"/>
      </g>
     </g>
     <g id="text_8">
      <!-- 6 -->
      <g transform="translate(879.211681 568.798437)scale(0.1 -0.1)">
       <use xlink:href="#DejaVuSans-Bold-36"/>
      </g>
     </g>
    </g>
    <g id="xtick_9">
     <g id="line2d_9">
      <g>
       <use xlink:href="#md430a315a8" x="996.075783" y="554.2" style="stroke: #000000; stroke-width: 0.8"/>
      </g>
     </g>
     <g id="text_9">
      <!-- 8 -->
      <g transform="translate(992.596876 568.798437)scale(0.1 -0.1)">
       <use xlink:href="#DejaVuSans-Bold-38"/>
      </g>
     </g>
    </g>
    <g id="text_10">
     <!-- 1st PC: 79.69 % -->
     <g transform="translate(440.8175 592.354531)scale(0.23 -0.23)">
      <defs>
       <path id="DejaVuSans-Bold-31" d="M 750 831 
L 1813 831 
L 1813 3847 
L 722 3622 
L 722 4441 
L 1806 4666 
L 2950 4666 
L 2950 831 
L 4013 831 
L 4013 0 
L 750 0 
L 750 831 
z
" transform="scale(0.015625)"/>
       <path id="DejaVuSans-Bold-73" d="M 3272 3391 
L 3272 2541 
Q 2913 2691 2578 2766 
Q 2244 2841 1947 2841 
Q 1628 2841 1473 2761 
Q 1319 2681 1319 2516 
Q 1319 2381 1436 2309 
Q 1553 2238 1856 2203 
L 2053 2175 
Q 2913 2066 3209 1816 
Q 3506 1566 3506 1031 
Q 3506 472 3093 190 
Q 2681 -91 1863 -91 
Q 1516 -91 1145 -36 
Q 775 19 384 128 
L 384 978 
Q 719 816 1070 734 
Q 1422 653 1784 653 
Q 2113 653 2278 743 
Q 2444 834 2444 1013 
Q 2444 1163 2330 1236 
Q 2216 1309 1875 1350 
L 1678 1375 
Q 931 1469 631 1722 
Q 331 1975 331 2491 
Q 331 3047 712 3315 
Q 1094 3584 1881 3584 
Q 2191 3584 2531 3537 
Q 2872 3491 3272 3391 
z
" transform="scale(0.015625)"/>
       <path id="DejaVuSans-Bold-74" d="M 1759 4494 
L 1759 3500 
L 2913 3500 
L 2913 2700 
L 1759 2700 
L 1759 1216 
Q 1759 972 1856 886 
Q 1953 800 2241 800 
L 2816 800 
L 2816 0 
L 1856 0 
Q 1194 0 917 276 
Q 641 553 641 1216 
L 641 2700 
L 84 2700 
L 84 3500 
L 641 3500 
L 641 4494 
L 1759 4494 
z
" transform="scale(0.015625)"/>
       <path id="DejaVuSans-Bold-20" transform="scale(0.015625)"/>
       <path id="DejaVuSans-Bold-50" d="M 588 4666 
L 2584 4666 
Q 3475 4666 3951 4270 
Q 4428 3875 4428 3144 
Q 4428 2409 3951 2014 
Q 3475 1619 2584 1619 
L 1791 1619 
L 1791 0 
L 588 0 
L 588 4666 
z
M 1791 3794 
L 1791 2491 
L 2456 2491 
Q 2806 2491 2997 2661 
Q 3188 2831 3188 3144 
Q 3188 3456 2997 3625 
Q 2806 3794 2456 3794 
L 1791 3794 
z
" transform="scale(0.015625)"/>
       <path id="DejaVuSans-Bold-43" d="M 4288 256 
Q 3956 84 3597 -3 
Q 3238 -91 2847 -91 
Q 1681 -91 1000 561 
Q 319 1213 319 2328 
Q 319 3447 1000 4098 
Q 1681 4750 2847 4750 
Q 3238 4750 3597 4662 
Q 3956 4575 4288 4403 
L 4288 3438 
Q 3953 3666 3628 3772 
Q 3303 3878 2944 3878 
Q 2300 3878 1931 3465 
Q 1563 3053 1563 2328 
Q 1563 1606 1931 1193 
Q 2300 781 2944 781 
Q 3303 781 3628 887 
Q 3953 994 4288 1222 
L 4288 256 
z
" transform="scale(0.015625)"/>
       <path id="DejaVuSans-Bold-3a" d="M 716 3500 
L 1844 3500 
L 1844 2291 
L 716 2291 
L 716 3500 
z
M 716 1209 
L 1844 1209 
L 1844 0 
L 716 0 
L 716 1209 
z
" transform="scale(0.015625)"/>
       <path id="DejaVuSans-Bold-37" d="M 428 4666 
L 3944 4666 
L 3944 3988 
L 2125 0 
L 953 0 
L 2675 3781 
L 428 3781 
L 428 4666 
z
" transform="scale(0.015625)"/>
       <path id="DejaVuSans-Bold-39" d="M 641 103 
L 641 966 
Q 928 831 1190 764 
Q 1453 697 1709 697 
Q 2247 697 2547 995 
Q 2847 1294 2900 1881 
Q 2688 1725 2447 1647 
Q 2206 1569 1925 1569 
Q 1209 1569 770 1986 
Q 331 2403 331 3084 
Q 331 3838 820 4291 
Q 1309 4744 2131 4744 
Q 3044 4744 3544 4128 
Q 4044 3513 4044 2388 
Q 4044 1231 3459 570 
Q 2875 -91 1856 -91 
Q 1528 -91 1228 -42 
Q 928 6 641 103 
z
M 2125 2350 
Q 2441 2350 2600 2554 
Q 2759 2759 2759 3169 
Q 2759 3575 2600 3781 
Q 2441 3988 2125 3988 
Q 1809 3988 1650 3781 
Q 1491 3575 1491 3169 
Q 1491 2759 1650 2554 
Q 1809 2350 2125 2350 
z
" transform="scale(0.015625)"/>
       <path id="DejaVuSans-Bold-2e" d="M 653 1209 
L 1778 1209 
L 1778 0 
L 653 0 
L 653 1209 
z
" transform="scale(0.015625)"/>
       <path id="DejaVuSans-Bold-25" d="M 4959 1925 
Q 4738 1925 4616 1733 
Q 4494 1541 4494 1184 
Q 4494 825 4614 633 
Q 4734 441 4959 441 
Q 5184 441 5303 633 
Q 5422 825 5422 1184 
Q 5422 1541 5301 1733 
Q 5181 1925 4959 1925 
z
M 4959 2450 
Q 5541 2450 5875 2112 
Q 6209 1775 6209 1184 
Q 6209 594 5875 251 
Q 5541 -91 4959 -91 
Q 4378 -91 4042 251 
Q 3706 594 3706 1184 
Q 3706 1772 4042 2111 
Q 4378 2450 4959 2450 
z
M 2094 -91 
L 1403 -91 
L 4319 4750 
L 5013 4750 
L 2094 -91 
z
M 1453 4750 
Q 2034 4750 2367 4411 
Q 2700 4072 2700 3481 
Q 2700 2891 2367 2550 
Q 2034 2209 1453 2209 
Q 872 2209 539 2550 
Q 206 2891 206 3481 
Q 206 4072 539 4411 
Q 872 4750 1453 4750 
z
M 1453 4225 
Q 1228 4225 1106 4031 
Q 984 3838 984 3481 
Q 984 3122 1106 2926 
Q 1228 2731 1453 2731 
Q 1678 2731 1798 2926 
Q 1919 3122 1919 3481 
Q 1919 3838 1797 4031 
Q 1675 4225 1453 4225 
z
" transform="scale(0.015625)"/>
      </defs>
      <use xlink:href="#DejaVuSans-Bold-31"/>
      <use xlink:href="#DejaVuSans-Bold-73" x="69.580078"/>
      <use xlink:href="#DejaVuSans-Bold-74" x="129.101562"/>
      <use xlink:href="#DejaVuSans-Bold-20" x="176.904297"/>
      <use xlink:href="#DejaVuSans-Bold-50" x="211.71875"/>
      <use xlink:href="#DejaVuSans-Bold-43" x="285.009766"/>
      <use xlink:href="#DejaVuSans-Bold-3a" x="358.398438"/>
      <use xlink:href="#DejaVuSans-Bold-20" x="398.388672"/>
      <use xlink:href="#DejaVuSans-Bold-37" x="433.203125"/>
      <use xlink:href="#DejaVuSans-Bold-39" x="502.783203"/>
      <use xlink:href="#DejaVuSans-Bold-2e" x="572.363281"/>
      <use xlink:href="#DejaVuSans-Bold-36" x="610.351562"/>
      <use xlink:href="#DejaVuSans-Bold-39" x="679.931641"/>
      <use xlink:href="#DejaVuSans-Bold-20" x="749.511719"/>
      <use xlink:href="#DejaVuSans-Bold-25" x="784.326172"/>
     </g>
    </g>
   </g>
   <g id="matplotlib.axis_2">
    <g id="ytick_1">
     <g id="line2d_10">
      <defs>
       <path id="m2032848dc5" d="M 0 0 
L -3.5 0 
" style="stroke: #000000; stroke-width: 0.8"/>
      </defs>
      <g>
       <use xlink:href="#m2032848dc5" x="62.755" y="526.533338" style="stroke: #000000; stroke-width: 0.8"/>
      </g>
     </g>
     <g id="text_11">
      <!-- −30 -->
      <g transform="translate(33.459688 530.332557)scale(0.1 -0.1)">
       <defs>
        <path id="DejaVuSans-Bold-33" d="M 2981 2516 
Q 3453 2394 3698 2092 
Q 3944 1791 3944 1325 
Q 3944 631 3412 270 
Q 2881 -91 1863 -91 
Q 1503 -91 1142 -33 
Q 781 25 428 141 
L 428 1069 
Q 766 900 1098 814 
Q 1431 728 1753 728 
Q 2231 728 2486 893 
Q 2741 1059 2741 1369 
Q 2741 1688 2480 1852 
Q 2219 2016 1709 2016 
L 1228 2016 
L 1228 2791 
L 1734 2791 
Q 2188 2791 2409 2933 
Q 2631 3075 2631 3366 
Q 2631 3634 2415 3781 
Q 2200 3928 1806 3928 
Q 1516 3928 1219 3862 
Q 922 3797 628 3669 
L 628 4550 
Q 984 4650 1334 4700 
Q 1684 4750 2022 4750 
Q 2931 4750 3382 4451 
Q 3834 4153 3834 3553 
Q 3834 3144 3618 2883 
Q 3403 2622 2981 2516 
z
" transform="scale(0.015625)"/>
       </defs>
       <use xlink:href="#DejaVuSans-Bold-2212"/>
       <use xlink:href="#DejaVuSans-Bold-33" x="83.789062"/>
       <use xlink:href="#DejaVuSans-Bold-30" x="153.369141"/>
      </g>
     </g>
    </g>
    <g id="ytick_2">
     <g id="line2d_11">
      <g>
       <use xlink:href="#m2032848dc5" x="62.755" y="444.588892" style="stroke: #000000; stroke-width: 0.8"/>
      </g>
     </g>
     <g id="text_12">
      <!-- −20 -->
      <g transform="translate(33.459688 448.388111)scale(0.1 -0.1)">
       <use xlink:href="#DejaVuSans-Bold-2212"/>
       <use xlink:href="#DejaVuSans-Bold-32" x="83.789062"/>
       <use xlink:href="#DejaVuSans-Bold-30" x="153.369141"/>
      </g>
     </g>
    </g>
    <g id="ytick_3">
     <g id="line2d_12">
      <g>
       <use xlink:href="#m2032848dc5" x="62.755" y="362.644446" style="stroke: #000000; stroke-width: 0.8"/>
      </g>
     </g>
     <g id="text_13">
      <!-- −10 -->
      <g transform="translate(33.459688 366.443665)scale(0.1 -0.1)">
       <use xlink:href="#DejaVuSans-Bold-2212"/>
       <use xlink:href="#DejaVuSans-Bold-31" x="83.789062"/>
       <use xlink:href="#DejaVuSans-Bold-30" x="153.369141"/>
      </g>
     </g>
    </g>
    <g id="ytick_4">
     <g id="line2d_13">
      <g>
       <use xlink:href="#m2032848dc5" x="62.755" y="280.7" style="stroke: #000000; stroke-width: 0.8"/>
      </g>
     </g>
     <g id="text_14">
      <!-- 0 -->
      <g transform="translate(48.797188 284.499219)scale(0.1 -0.1)">
       <use xlink:href="#DejaVuSans-Bold-30"/>
      </g>
     </g>
    </g>
    <g id="ytick_5">
     <g id="line2d_14">
      <g>
       <use xlink:href="#m2032848dc5" x="62.755" y="198.755554" style="stroke: #000000; stroke-width: 0.8"/>
      </g>
     </g>
     <g id="text_15">
      <!-- 10 -->
      <g transform="translate(41.839375 202.554773)scale(0.1 -0.1)">
       <use xlink:href="#DejaVuSans-Bold-31"/>
       <use xlink:href="#DejaVuSans-Bold-30" x="69.580078"/>
      </g>
     </g>
    </g>
    <g id="ytick_6">
     <g id="line2d_15">
      <g>
       <use xlink:href="#m2032848dc5" x="62.755" y="116.811108" style="stroke: #000000; stroke-width: 0.8"/>
      </g>
     </g>
     <g id="text_16">
      <!-- 20 -->
      <g transform="translate(41.839375 120.610327)scale(0.1 -0.1)">
       <use xlink:href="#DejaVuSans-Bold-32"/>
       <use xlink:href="#DejaVuSans-Bold-30" x="69.580078"/>
      </g>
     </g>
    </g>
    <g id="ytick_7">
     <g id="line2d_16">
      <g>
       <use xlink:href="#m2032848dc5" x="62.755" y="34.866662" style="stroke: #000000; stroke-width: 0.8"/>
      </g>
     </g>
     <g id="text_17">
      <!-- 30 -->
      <g transform="translate(41.839375 38.665881)scale(0.1 -0.1)">
       <use xlink:href="#DejaVuSans-Bold-33"/>
       <use xlink:href="#DejaVuSans-Bold-30" x="69.580078"/>
      </g>
     </g>
    </g>
    <g id="text_18">
     <!-- 2nd PC: 16.80 % -->
     <g transform="translate(24.676406 386.494609)rotate(-90)scale(0.23 -0.23)">
      <defs>
       <path id="DejaVuSans-Bold-6e" d="M 4056 2131 
L 4056 0 
L 2931 0 
L 2931 347 
L 2931 1631 
Q 2931 2084 2911 2256 
Q 2891 2428 2841 2509 
Q 2775 2619 2662 2680 
Q 2550 2741 2406 2741 
Q 2056 2741 1856 2470 
Q 1656 2200 1656 1722 
L 1656 0 
L 538 0 
L 538 3500 
L 1656 3500 
L 1656 2988 
Q 1909 3294 2193 3439 
Q 2478 3584 2822 3584 
Q 3428 3584 3742 3212 
Q 4056 2841 4056 2131 
z
" transform="scale(0.015625)"/>
       <path id="DejaVuSans-Bold-64" d="M 2919 2988 
L 2919 4863 
L 4044 4863 
L 4044 0 
L 2919 0 
L 2919 506 
Q 2688 197 2409 53 
Q 2131 -91 1766 -91 
Q 1119 -91 703 423 
Q 288 938 288 1747 
Q 288 2556 703 3070 
Q 1119 3584 1766 3584 
Q 2128 3584 2408 3439 
Q 2688 3294 2919 2988 
z
M 2181 722 
Q 2541 722 2730 984 
Q 2919 1247 2919 1747 
Q 2919 2247 2730 2509 
Q 2541 2772 2181 2772 
Q 1825 2772 1636 2509 
Q 1447 2247 1447 1747 
Q 1447 1247 1636 984 
Q 1825 722 2181 722 
z
" transform="scale(0.015625)"/>
      </defs>
      <use xlink:href="#DejaVuSans-Bold-32"/>
      <use xlink:href="#DejaVuSans-Bold-6e" x="69.580078"/>
      <use xlink:href="#DejaVuSans-Bold-64" x="140.771484"/>
      <use xlink:href="#DejaVuSans-Bold-20" x="212.353516"/>
      <use xlink:href="#DejaVuSans-Bold-50" x="247.167969"/>
      <use xlink:href="#DejaVuSans-Bold-43" x="320.458984"/>
      <use xlink:href="#DejaVuSans-Bold-3a" x="393.847656"/>
      <use xlink:href="#DejaVuSans-Bold-20" x="433.837891"/>
      <use xlink:href="#DejaVuSans-Bold-31" x="468.652344"/>
      <use xlink:href="#DejaVuSans-Bold-36" x="538.232422"/>
      <use xlink:href="#DejaVuSans-Bold-2e" x="607.8125"/>
      <use xlink:href="#DejaVuSans-Bold-38" x="645.800781"/>
      <use xlink:href="#DejaVuSans-Bold-30" x="715.380859"/>
      <use xlink:href="#DejaVuSans-Bold-20" x="784.960938"/>
      <use xlink:href="#DejaVuSans-Bold-25" x="819.775391"/>
     </g>
    </g>
   </g>
   <g id="PathCollection_1"/>
   <g id="PathCollection_2">
    <path d="M 1022.315 151.817504 
L 915.697222 179.17158 
L 889.775905 189.533333 
L 809.079444 201.675252 
L 702.461667 208.791295 
L 595.843889 209.789191 
L 489.226111 200.092601 
L 463.992778 194.526917 
" clip-path="url(#p1eff4d35d7)" style="fill: none; stroke: #482475; stroke-width: 1.5"/>
    <path d="M 464.121584 185.127664 
L 489.226111 180.269954 
L 595.843889 159.806841 
L 702.461667 140.595956 
L 732.51124 128.755556 
L 809.079444 104.043385 
L 915.697222 98.512835 
L 1022.315 109.934756 
" clip-path="url(#p1eff4d35d7)" style="fill: none; stroke: #482475; stroke-width: 1.5"/>
   </g>
   <g id="PathCollection_3">
    <path d="M 1022.315 193.442601 
L 915.697222 208.820697 
L 809.079444 221.695438 
L 702.461667 228.867044 
L 595.843889 233.270177 
L 489.226111 234.654728 
L 382.608333 233.280831 
L 296.044426 189.533333 
L 382.608333 171.209651 
L 466.537208 154.473765 
" clip-path="url(#p1eff4d35d7)" style="fill: none; stroke: #414487; stroke-width: 1.5"/>
    <path d="M 511.781096 144.831489 
L 582.627852 128.755556 
L 595.843889 123.177127 
L 702.461667 89.40708 
L 782.784059 67.977778 
L 809.079444 59.555257 
L 915.697222 65.296454 
L 936.92147 67.977778 
L 1022.315 74.159743 
" clip-path="url(#p1eff4d35d7)" style="fill: none; stroke: #414487; stroke-width: 1.5"/>
   </g>
   <g id="PathCollection_4">
    <path d="M 62.755 216.027684 
L 141.820636 189.533333 
L 169.372778 184.643297 
L 275.990556 163.069807 
L 382.608333 141.896538 
L 423.790871 133.412523 
" clip-path="url(#p1eff4d35d7)" style="fill: none; stroke: #355f8d; stroke-width: 1.5"/>
    <path d="M 467.235829 119.050854 
L 489.226111 108.810206 
L 592.27946 67.977778 
L 595.843889 66.419513 
L 702.461667 27.52189 
L 773.083151 7.2 
" clip-path="url(#p1eff4d35d7)" style="fill: none; stroke: #355f8d; stroke-width: 1.5"/>
    <path d="M 1022.315 221.440204 
L 915.697222 232.774641 
L 809.079444 241.715624 
L 702.461667 248.942794 
L 681.239972 250.311111 
L 618.850853 255.99173 
" clip-path="url(#p1eff4d35d7)" style="fill: none; stroke: #355f8d; stroke-width: 1.5"/>
    <path d="M 572.789665 259.613504 
L 489.226111 265.148196 
L 382.608333 270.5709 
L 275.990556 275.120416 
L 169.372778 276.056282 
L 62.755 269.925475 
" clip-path="url(#p1eff4d35d7)" style="fill: none; stroke: #355f8d; stroke-width: 1.5"/>
    <path d="M 951.108923 7.2 
L 999.390833 13.150153 
" clip-path="url(#p1eff4d35d7)" style="fill: none; stroke: #355f8d; stroke-width: 1.5"/>
   </g>
   <g id="PathCollection_5">
    <path d="M 1022.315 249.437806 
L 1011.196232 250.311111 
L 915.697222 260.806928 
L 809.079444 270.149189 
L 702.461667 279.108033 
L 618.947617 284.848412 
" clip-path="url(#p1eff4d35d7)" style="fill: none; stroke: #2a788e; stroke-width: 1.5"/>
    <path d="M 572.719103 287.702218 
L 489.226111 292.272292 
L 382.608333 297.346303 
L 275.990556 301.668522 
L 169.372778 304.70693 
L 62.755 306.569797 
" clip-path="url(#p1eff4d35d7)" style="fill: none; stroke: #2a788e; stroke-width: 1.5"/>
    <path d="M 62.755 168.461197 
L 169.372778 150.719233 
L 275.990556 132.125026 
L 293.564617 128.755556 
L 361.823435 96.133378 
" clip-path="url(#p1eff4d35d7)" style="fill: none; stroke: #2a788e; stroke-width: 1.5"/>
    <path d="M 403.638399 76.766508 
L 423.231344 67.977778 
L 489.226111 35.516097 
L 557.241776 7.2 
" clip-path="url(#p1eff4d35d7)" style="fill: none; stroke: #2a788e; stroke-width: 1.5"/>
   </g>
   <g id="PathCollection_6">
    <path d="M 1022.315 296.129903 
L 915.697222 299.98374 
L 809.079444 304.912644 
L 702.461667 310.011247 
L 679.968951 311.088889 
L 619.015067 314.741143 
" clip-path="url(#p1eff4d35d7)" style="fill: none; stroke: #21918c; stroke-width: 1.5"/>
    <path d="M 572.673588 317.531656 
L 489.226111 322.581425 
L 382.608333 328.973039 
L 275.990556 334.852142 
L 169.372778 340.152683 
L 62.755 344.766884 
" clip-path="url(#p1eff4d35d7)" style="fill: none; stroke: #21918c; stroke-width: 1.5"/>
    <path d="M 62.755 132.523176 
L 87.191911 128.755556 
L 169.372778 96.462495 
L 212.681304 77.318965 
" clip-path="url(#p1eff4d35d7)" style="fill: none; stroke: #21918c; stroke-width: 1.5"/>
    <path d="M 254.17012 57.129144 
L 275.990556 45.500154 
L 350.571018 7.2 
" clip-path="url(#p1eff4d35d7)" style="fill: none; stroke: #21918c; stroke-width: 1.5"/>
   </g>
   <g id="PathCollection_7">
    <path d="M 1022.315 342.691685 
L 915.697222 343.678962 
L 809.079444 346.588856 
L 702.461667 350.353354 
L 595.843889 354.777842 
L 512.410665 358.946354 
" clip-path="url(#p1eff4d35d7)" style="fill: none; stroke: #22a884; stroke-width: 1.5"/>
    <path d="M 466.044897 361.324584 
L 382.608333 365.715312 
L 275.990556 371.685337 
L 272.64312 371.866667 
L 169.372778 378.450906 
L 62.755 384.654976 
" clip-path="url(#p1eff4d35d7)" style="fill: none; stroke: #22a884; stroke-width: 1.5"/>
    <path d="M 62.755 38.240701 
L 98.881366 18.330085 
" clip-path="url(#p1eff4d35d7)" style="fill: none; stroke: #22a884; stroke-width: 1.5"/>
   </g>
   <g id="PathCollection_8">
    <path d="M 1022.315 390.443033 
L 915.697222 390.98311 
L 809.079444 392.520523 
L 702.461667 394.911637 
L 595.843889 398.626842 
L 512.415696 402.436519 
" clip-path="url(#p1eff4d35d7)" style="fill: none; stroke: #44bf70; stroke-width: 1.5"/>
    <path d="M 466.044826 404.714049 
L 382.608333 409.100153 
L 275.990556 415.40506 
L 169.372778 421.803275 
L 62.755 428.069701 
" clip-path="url(#p1eff4d35d7)" style="fill: none; stroke: #44bf70; stroke-width: 1.5"/>
   </g>
   <g id="PathCollection_9">
    <path d="M 1022.315 441.752893 
L 915.697222 442.2885 
L 809.079444 443.74831 
L 702.461667 445.838426 
L 595.843889 449.254621 
L 512.37072 452.347891 
" clip-path="url(#p1eff4d35d7)" style="fill: none; stroke: #7ad151; stroke-width: 1.5"/>
    <path d="M 466.094003 454.337883 
L 382.608333 458.424524 
L 275.990556 464.156816 
L 169.372778 470.043646 
L 62.755 476.079903 
" clip-path="url(#p1eff4d35d7)" style="fill: none; stroke: #7ad151; stroke-width: 1.5"/>
   </g>
   <g id="PathCollection_10">
    <path d="M 1022.315 498.562584 
L 915.697222 499.390526 
L 809.079444 501.651386 
L 702.461667 504.545096 
L 595.843889 507.774821 
L 512.320546 510.525153 
" clip-path="url(#p1eff4d35d7)" style="fill: none; stroke: #bddf26; stroke-width: 1.5"/>
    <path d="M 466.139265 512.239267 
L 382.608333 515.68965 
L 275.990556 520.143188 
L 169.372778 525.048779 
L 62.755 530.286371 
" clip-path="url(#p1eff4d35d7)" style="fill: none; stroke: #bddf26; stroke-width: 1.5"/>
   </g>
   <g id="PathCollection_11"/>
   <g id="line2d_17">
    <path d="M 85.615508 540.939323 
L 86.194882 540.956234 
L 86.00046 541.049668 
L 85.713584 541.10381 
L 85.61421 541.136757 
L 85.601667 541.154184 
L 85.628051 541.160545 
L 85.655895 541.165594 
L 85.698337 541.170986 
L 85.735859 541.17619 
" clip-path="url(#p1eff4d35d7)" style="fill: none; stroke: #e41a1c; stroke-width: 8; stroke-linecap: square"/>
    <defs>
     <path id="m9c1bcf7534" d="M 0 4 
C 1.060812 4 2.078319 3.578535 2.828427 2.828427 
C 3.578535 2.078319 4 1.060812 4 0 
C 4 -1.060812 3.578535 -2.078319 2.828427 -2.828427 
C 2.078319 -3.578535 1.060812 -4 0 -4 
C -1.060812 -4 -2.078319 -3.578535 -2.828427 -2.828427 
C -3.578535 -2.078319 -4 -1.060812 -4 0 
C -4 1.060812 -3.578535 2.078319 -2.828427 2.828427 
C -2.078319 3.578535 -1.060812 4 0 4 
z
" style="stroke: #000000"/>
    </defs>
    <g clip-path="url(#p1eff4d35d7)">
     <use xlink:href="#m9c1bcf7534" x="85.615508" y="540.939323" style="fill-opacity: 0; stroke: #000000"/>
     <use xlink:href="#m9c1bcf7534" x="86.194882" y="540.956234" style="fill-opacity: 0; stroke: #000000"/>
     <use xlink:href="#m9c1bcf7534" x="86.00046" y="541.049668" style="fill-opacity: 0; stroke: #000000"/>
     <use xlink:href="#m9c1bcf7534" x="85.713584" y="541.10381" style="fill-opacity: 0; stroke: #000000"/>
     <use xlink:href="#m9c1bcf7534" x="85.61421" y="541.136757" style="fill-opacity: 0; stroke: #000000"/>
     <use xlink:href="#m9c1bcf7534" x="85.601667" y="541.154184" style="fill-opacity: 0; stroke: #000000"/>
     <use xlink:href="#m9c1bcf7534" x="85.628051" y="541.160545" style="fill-opacity: 0; stroke: #000000"/>
     <use xlink:href="#m9c1bcf7534" x="85.655895" y="541.165594" style="fill-opacity: 0; stroke: #000000"/>
     <use xlink:href="#m9c1bcf7534" x="85.698337" y="541.170986" style="fill-opacity: 0; stroke: #000000"/>
     <use xlink:href="#m9c1bcf7534" x="85.735859" y="541.17619" style="fill-opacity: 0; stroke: #000000"/>
    </g>
   </g>
   <g id="line2d_18">
    <path d="M 107.705257 534.204564 
L 105.333992 533.660605 
L 104.696037 533.869276 
L 104.595527 533.938234 
L 104.584606 533.954145 
L 104.697199 533.957178 
L 104.324628 533.921667 
L 104.191139 533.839924 
L 104.174757 533.874872 
L 103.969656 533.833516 
" clip-path="url(#p1eff4d35d7)" style="fill: none; stroke: #377eb8; stroke-width: 8; stroke-linecap: square"/>
    <g clip-path="url(#p1eff4d35d7)">
     <use xlink:href="#m9c1bcf7534" x="107.705257" y="534.204564" style="fill-opacity: 0; stroke: #000000"/>
     <use xlink:href="#m9c1bcf7534" x="105.333992" y="533.660605" style="fill-opacity: 0; stroke: #000000"/>
     <use xlink:href="#m9c1bcf7534" x="104.696037" y="533.869276" style="fill-opacity: 0; stroke: #000000"/>
     <use xlink:href="#m9c1bcf7534" x="104.595527" y="533.938234" style="fill-opacity: 0; stroke: #000000"/>
     <use xlink:href="#m9c1bcf7534" x="104.584606" y="533.954145" style="fill-opacity: 0; stroke: #000000"/>
     <use xlink:href="#m9c1bcf7534" x="104.697199" y="533.957178" style="fill-opacity: 0; stroke: #000000"/>
     <use xlink:href="#m9c1bcf7534" x="104.324628" y="533.921667" style="fill-opacity: 0; stroke: #000000"/>
     <use xlink:href="#m9c1bcf7534" x="104.191139" y="533.839924" style="fill-opacity: 0; stroke: #000000"/>
     <use xlink:href="#m9c1bcf7534" x="104.174757" y="533.874872" style="fill-opacity: 0; stroke: #000000"/>
     <use xlink:href="#m9c1bcf7534" x="103.969656" y="533.833516" style="fill-opacity: 0; stroke: #000000"/>
    </g>
   </g>
   <g id="line2d_19">
    <path d="M 889.75394 273.545179 
L 626.049998 257.47429 
L 605.868781 261.546255 
L 594.237456 264.780839 
L 584.648096 267.394135 
L 574.611112 270.187297 
L 564.263053 273.248783 
L 556.675036 276.060206 
L 548.194984 278.707777 
L 542.535 280.7 
" clip-path="url(#p1eff4d35d7)" style="fill: none; stroke: #4daf4a; stroke-width: 8; stroke-linecap: square"/>
    <g clip-path="url(#p1eff4d35d7)">
     <use xlink:href="#m9c1bcf7534" x="889.75394" y="273.545179" style="fill-opacity: 0; stroke: #000000"/>
     <use xlink:href="#m9c1bcf7534" x="626.049998" y="257.47429" style="fill-opacity: 0; stroke: #000000"/>
     <use xlink:href="#m9c1bcf7534" x="605.868781" y="261.546255" style="fill-opacity: 0; stroke: #000000"/>
     <use xlink:href="#m9c1bcf7534" x="594.237456" y="264.780839" style="fill-opacity: 0; stroke: #000000"/>
     <use xlink:href="#m9c1bcf7534" x="584.648096" y="267.394135" style="fill-opacity: 0; stroke: #000000"/>
     <use xlink:href="#m9c1bcf7534" x="574.611112" y="270.187297" style="fill-opacity: 0; stroke: #000000"/>
     <use xlink:href="#m9c1bcf7534" x="564.263053" y="273.248783" style="fill-opacity: 0; stroke: #000000"/>
     <use xlink:href="#m9c1bcf7534" x="556.675036" y="276.060206" style="fill-opacity: 0; stroke: #000000"/>
     <use xlink:href="#m9c1bcf7534" x="548.194984" y="278.707777" style="fill-opacity: 0; stroke: #000000"/>
     <use xlink:href="#m9c1bcf7534" x="542.535" y="280.7" style="fill-opacity: 0; stroke: #000000"/>
    </g>
   </g>
   <g id="patch_3">
    <path d="M 62.755 554.2 
L 62.755 7.2 
" style="fill: none; stroke: #000000; stroke-width: 0.8; stroke-linejoin: miter; stroke-linecap: square"/>
   </g>
   <g id="patch_4">
    <path d="M 1022.315 554.2 
L 1022.315 7.2 
" style="fill: none; stroke: #000000; stroke-width: 0.8; stroke-linejoin: miter; stroke-linecap: square"/>
   </g>
   <g id="patch_5">
    <path d="M 62.755 554.2 
L 1022.315 554.2 
" style="fill: none; stroke: #000000; stroke-width: 0.8; stroke-linejoin: miter; stroke-linecap: square"/>
   </g>
   <g id="patch_6">
    <path d="M 62.755 7.2 
L 1022.315 7.2 
" style="fill: none; stroke: #000000; stroke-width: 0.8; stroke-linejoin: miter; stroke-linecap: square"/>
   </g>
   <g id="text_19">
    <g clip-path="url(#p1eff4d35d7)">
     <!-- 2.800 -->
     <g style="fill: #482475" transform="translate(443.901682 205.383527)rotate(-89.236851)scale(0.1 -0.1)">
      <use xlink:href="#DejaVuSans-Bold-32"/>
      <use xlink:href="#DejaVuSans-Bold-2e" x="69.580078"/>
      <use xlink:href="#DejaVuSans-Bold-38" x="107.568359"/>
      <use xlink:href="#DejaVuSans-Bold-30" x="177.148438"/>
      <use xlink:href="#DejaVuSans-Bold-30" x="246.728516"/>
     </g>
    </g>
   </g>
   <g id="text_20">
    <g clip-path="url(#p1eff4d35d7)">
     <!-- 3.200 -->
     <g style="fill: #414487" transform="translate(474.36919 156.031851)rotate(-12.366708)scale(0.1 -0.1)">
      <use xlink:href="#DejaVuSans-Bold-33"/>
      <use xlink:href="#DejaVuSans-Bold-2e" x="69.580078"/>
      <use xlink:href="#DejaVuSans-Bold-32" x="107.568359"/>
      <use xlink:href="#DejaVuSans-Bold-30" x="177.148438"/>
      <use xlink:href="#DejaVuSans-Bold-30" x="246.728516"/>
     </g>
    </g>
   </g>
   <g id="text_21">
    <g clip-path="url(#p1eff4d35d7)">
     <!-- 3.600 -->
     <g style="fill: #355f8d" transform="translate(432.312234 136.460053)rotate(-18.782733)scale(0.1 -0.1)">
      <use xlink:href="#DejaVuSans-Bold-33"/>
      <use xlink:href="#DejaVuSans-Bold-2e" x="69.580078"/>
      <use xlink:href="#DejaVuSans-Bold-36" x="107.568359"/>
      <use xlink:href="#DejaVuSans-Bold-30" x="177.148438"/>
      <use xlink:href="#DejaVuSans-Bold-30" x="246.728516"/>
     </g>
    </g>
   </g>
   <g id="text_22">
    <g clip-path="url(#p1eff4d35d7)">
     <!-- 3.600 -->
     <g style="fill: #355f8d" transform="translate(580.303028 262.112098)rotate(-4.624817)scale(0.1 -0.1)">
      <use xlink:href="#DejaVuSans-Bold-33"/>
      <use xlink:href="#DejaVuSans-Bold-2e" x="69.580078"/>
      <use xlink:href="#DejaVuSans-Bold-36" x="107.568359"/>
      <use xlink:href="#DejaVuSans-Bold-30" x="177.148438"/>
      <use xlink:href="#DejaVuSans-Bold-30" x="246.728516"/>
     </g>
    </g>
   </g>
   <g id="text_23">
    <g clip-path="url(#p1eff4d35d7)">
     <!-- 3.600 -->
     <g style="fill: #355f8d" transform="translate(1006.278681 16.723547)rotate(-352.774206)scale(0.1 -0.1)">
      <use xlink:href="#DejaVuSans-Bold-33"/>
      <use xlink:href="#DejaVuSans-Bold-2e" x="69.580078"/>
      <use xlink:href="#DejaVuSans-Bold-36" x="107.568359"/>
      <use xlink:href="#DejaVuSans-Bold-30" x="177.148438"/>
      <use xlink:href="#DejaVuSans-Bold-30" x="246.728516"/>
     </g>
    </g>
   </g>
   <g id="text_24">
    <g clip-path="url(#p1eff4d35d7)">
     <!-- 4.000 -->
     <g style="fill: #2a788e" transform="translate(580.235741 290.192672)rotate(-3.633995)scale(0.1 -0.1)">
      <use xlink:href="#DejaVuSans-Bold-34"/>
      <use xlink:href="#DejaVuSans-Bold-2e" x="69.580078"/>
      <use xlink:href="#DejaVuSans-Bold-30" x="107.568359"/>
      <use xlink:href="#DejaVuSans-Bold-30" x="177.148438"/>
      <use xlink:href="#DejaVuSans-Bold-30" x="246.728516"/>
     </g>
    </g>
   </g>
   <g id="text_25">
    <g clip-path="url(#p1eff4d35d7)">
     <!-- 4.000 -->
     <g style="fill: #2a788e" transform="translate(369.518387 95.493791)rotate(-25.477547)scale(0.1 -0.1)">
      <use xlink:href="#DejaVuSans-Bold-34"/>
      <use xlink:href="#DejaVuSans-Bold-2e" x="69.580078"/>
      <use xlink:href="#DejaVuSans-Bold-30" x="107.568359"/>
      <use xlink:href="#DejaVuSans-Bold-30" x="177.148438"/>
      <use xlink:href="#DejaVuSans-Bold-30" x="246.728516"/>
     </g>
    </g>
   </g>
   <g id="text_26">
    <g clip-path="url(#p1eff4d35d7)">
     <!-- 4.400 -->
     <g style="fill: #21918c" transform="translate(580.229923 319.861478)rotate(-3.544969)scale(0.1 -0.1)">
      <use xlink:href="#DejaVuSans-Bold-34"/>
      <use xlink:href="#DejaVuSans-Bold-2e" x="69.580078"/>
      <use xlink:href="#DejaVuSans-Bold-34" x="107.568359"/>
      <use xlink:href="#DejaVuSans-Bold-30" x="177.148438"/>
      <use xlink:href="#DejaVuSans-Bold-30" x="246.728516"/>
     </g>
    </g>
   </g>
   <g id="text_27">
    <g clip-path="url(#p1eff4d35d7)">
     <!-- 4.400 -->
     <g style="fill: #21918c" transform="translate(220.907672 77.525132)rotate(-26.594704)scale(0.1 -0.1)">
      <use xlink:href="#DejaVuSans-Bold-34"/>
      <use xlink:href="#DejaVuSans-Bold-2e" x="69.580078"/>
      <use xlink:href="#DejaVuSans-Bold-34" x="107.568359"/>
      <use xlink:href="#DejaVuSans-Bold-30" x="177.148438"/>
      <use xlink:href="#DejaVuSans-Bold-30" x="246.728516"/>
     </g>
    </g>
   </g>
   <g id="text_28">
    <g clip-path="url(#p1eff4d35d7)">
     <!-- 4.800 -->
     <g style="fill: #22a884" transform="translate(473.578651 363.693636)rotate(-3.020694)scale(0.1 -0.1)">
      <use xlink:href="#DejaVuSans-Bold-34"/>
      <use xlink:href="#DejaVuSans-Bold-2e" x="69.580078"/>
      <use xlink:href="#DejaVuSans-Bold-38" x="107.568359"/>
      <use xlink:href="#DejaVuSans-Bold-30" x="177.148438"/>
      <use xlink:href="#DejaVuSans-Bold-30" x="246.728516"/>
     </g>
    </g>
   </g>
   <g id="text_29">
    <g clip-path="url(#p1eff4d35d7)">
     <!-- 4.800 -->
     <g style="fill: #22a884" transform="translate(106.679888 17.400855)rotate(-29.553668)scale(0.1 -0.1)">
      <use xlink:href="#DejaVuSans-Bold-34"/>
      <use xlink:href="#DejaVuSans-Bold-2e" x="69.580078"/>
      <use xlink:href="#DejaVuSans-Bold-38" x="107.568359"/>
      <use xlink:href="#DejaVuSans-Bold-30" x="177.148438"/>
      <use xlink:href="#DejaVuSans-Bold-30" x="246.728516"/>
     </g>
    </g>
   </g>
   <g id="text_30">
    <g clip-path="url(#p1eff4d35d7)">
     <!-- 5.200 -->
     <g style="fill: #44bf70" transform="translate(473.570672 407.049416)rotate(-2.892695)scale(0.1 -0.1)">
      <defs>
       <path id="DejaVuSans-Bold-35" d="M 678 4666 
L 3669 4666 
L 3669 3781 
L 1638 3781 
L 1638 3059 
Q 1775 3097 1914 3117 
Q 2053 3138 2203 3138 
Q 3056 3138 3531 2711 
Q 4006 2284 4006 1522 
Q 4006 766 3489 337 
Q 2972 -91 2053 -91 
Q 1656 -91 1267 -14 
Q 878 63 494 219 
L 494 1166 
Q 875 947 1217 837 
Q 1559 728 1863 728 
Q 2300 728 2551 942 
Q 2803 1156 2803 1522 
Q 2803 1891 2551 2103 
Q 2300 2316 1863 2316 
Q 1603 2316 1309 2248 
Q 1016 2181 678 2041 
L 678 4666 
z
" transform="scale(0.015625)"/>
      </defs>
      <use xlink:href="#DejaVuSans-Bold-35"/>
      <use xlink:href="#DejaVuSans-Bold-2e" x="69.580078"/>
      <use xlink:href="#DejaVuSans-Bold-32" x="107.568359"/>
      <use xlink:href="#DejaVuSans-Bold-30" x="177.148438"/>
      <use xlink:href="#DejaVuSans-Bold-30" x="246.728516"/>
     </g>
    </g>
   </g>
   <g id="text_31">
    <g clip-path="url(#p1eff4d35d7)">
     <!-- 5.600 -->
     <g style="fill: #7ad151" transform="translate(473.548678 456.661212)rotate(-2.533137)scale(0.1 -0.1)">
      <use xlink:href="#DejaVuSans-Bold-35"/>
      <use xlink:href="#DejaVuSans-Bold-2e" x="69.580078"/>
      <use xlink:href="#DejaVuSans-Bold-36" x="107.568359"/>
      <use xlink:href="#DejaVuSans-Bold-30" x="177.148438"/>
      <use xlink:href="#DejaVuSans-Bold-30" x="246.728516"/>
     </g>
    </g>
   </g>
   <g id="text_32">
    <g clip-path="url(#p1eff4d35d7)">
     <!-- 6.000 -->
     <g style="fill: #bddf26" transform="translate(473.528078 514.646458)rotate(-2.186834)scale(0.1 -0.1)">
      <use xlink:href="#DejaVuSans-Bold-36"/>
      <use xlink:href="#DejaVuSans-Bold-2e" x="69.580078"/>
      <use xlink:href="#DejaVuSans-Bold-30" x="107.568359"/>
      <use xlink:href="#DejaVuSans-Bold-30" x="177.148438"/>
      <use xlink:href="#DejaVuSans-Bold-30" x="246.728516"/>
     </g>
    </g>
   </g>
  </g>
 </g>
 <defs>
  <clipPath id="p1eff4d35d7">
   <rect x="62.755" y="7.2" width="959.56" height="547"/>
  </clipPath>
 </defs>
</svg>
